<?xml version="1.0" standalone="no"?>
<!DOCTYPE svg PUBLIC "-//W3C//DTD SVG 1.1//EN" "http://www.w3.org/Graphics/SVG/1.1/DTD/svg11.dtd" >
<svg xmlns="http://www.w3.org/2000/svg">
<metadata></metadata>
<defs>
<font id="proxima_nova_blackheavy" horiz-adv-x="573" >
<font-face units-per-em="2048" ascent="1638" descent="-410" />
<missing-glyph horiz-adv-x="522" />
<glyph horiz-adv-x="2048" />
<glyph horiz-adv-x="2048" />
<glyph unicode="&#xd;" horiz-adv-x="681" />
<glyph unicode=" "  horiz-adv-x="522" />
<glyph unicode="&#x09;" horiz-adv-x="522" />
<glyph unicode="&#xa0;" horiz-adv-x="522" />
<glyph unicode="!" d="M68 1366h438l-51 -858h-332zM72 195q0 47 17 85q18 40 47 69q28 28 69 47q39 18 84 18t84 -18t68 -47t47 -69t18 -85q0 -43 -18 -83q-18 -41 -47 -70t-68 -47t-84 -18t-84 18q-41 19 -69 47q-29 29 -47 70q-17 38 -17 83z" />
<glyph unicode="&#x22;" horiz-adv-x="960" d="M70 1198q0 40 15 74t41 60q25 25 59 40q32 14 73 14t73 -14q34 -15 59 -40q26 -26 41 -60t15 -74q0 -8 -5 -36q-2 -9 -6.5 -30t-6.5 -32l-18 -82l-21 -90l-55 -234h-152q-33 128 -57 234l-21 90l-18 82q-9 45 -12 62q-4 23 -4 36zM516 1198q0 42 14 74q15 35 40 60 q24 24 61 40q32 14 74 14q40 0 72 -14q35 -15 60 -40t40 -60q14 -32 14 -74q0 -8 -5 -36q-2 -9 -7 -29.5t-7 -32.5l-18 -82l-20 -90l-56 -234h-149q-41 157 -58 234l-20 90l-19 82q-9 45 -12 62q-4 23 -4 36z" />
<glyph unicode="#" horiz-adv-x="1323" d="M25 324l71 223h180l89 270h-179l70 221h184l109 328h260l-109 -328h160l109 328h260l-111 -328h180l-67 -221h-187l-90 -270h187l-70 -223h-192l-107 -324h-260l109 324h-162l-107 -324h-260l109 324h-176zM537 547h157l90 270h-159z" />
<glyph unicode="$" horiz-adv-x="1300" d="M37 193l215 307q79 -74 189 -125q111 -51 251 -51q61 0 106 16q46 16 46 57q0 33 -57 48q-60 16 -141 30q-95 17 -183 38q-96 23 -183 72q-84 47 -142 131q-56 81 -56 218q0 76 29 151t86 135t142 102q83 41 198 56v195h262v-197q123 -17 230 -61q108 -45 200 -119 l-221 -293q-90 67 -197 102q-102 33 -205 33q-63 0 -83 -17q-21 -18 -21 -44q0 -33 56 -49q63 -18 140 -32q72 -13 184 -40q94 -23 183 -72q81 -45 140 -127q57 -80 57 -206q0 -199 -122 -319q-121 -119 -341 -148v-189h-262v189q-167 17 -287 70q-119 53 -213 139z" />
<glyph unicode="%" horiz-adv-x="1605" d="M41 1040q0 72 26 136t72 110q47 47 115 74q65 26 152 26q86 0 152 -26q68 -27 117 -74q48 -47 74 -110q25 -62 25 -136q0 -72 -25 -134q-24 -60 -74 -108q-47 -46 -117 -73q-69 -27 -152 -27q-84 0 -152 27q-70 28 -115 73q-48 48 -72 108q-26 64 -26 134zM268 0 l873 1366h200l-874 -1366h-199zM291 1040q0 -65 34 -95q35 -30 81 -30q48 0 83 30t35 95q0 70 -35 100q-33 29 -83 29q-48 0 -81 -29q-34 -30 -34 -100zM834 317q0 74 25 136t73 110q47 47 115 74q67 27 151 27t152 -27q66 -26 115 -74q48 -47 74 -110q26 -64 26 -136 q0 -70 -26 -134q-24 -60 -74 -108q-47 -46 -115 -73t-152 -27t-151 27q-70 28 -115 73q-49 49 -73 108q-25 62 -25 134zM1081 317q0 -68 34 -96t83 -28q50 0 84 28q35 29 35 96q0 70 -35 100q-33 29 -84 29q-50 0 -83 -29q-34 -30 -34 -100z" />
<glyph unicode="&#x26;" horiz-adv-x="1335" d="M25 387q0 77 23 135q24 59 63 106q38 45 91 80q48 31 109 62q-34 70 -55 142q-20 67 -20 137t31 131q30 59 89 107q55 45 138 73q77 26 178 26q81 0 151 -20q76 -22 130 -60q56 -39 91 -98q35 -58 35 -131q0 -80 -27 -137q-26 -55 -73 -99q-48 -45 -103 -73 q-58 -30 -120 -57q38 -51 40 -54l38 -47l36 -48l37 -46q33 51 59 106q26 54 42 111l284 -135q-34 -70 -88 -160q-46 -77 -106 -149l128 -143l134 -146h-455l-29 31l-34 37q-79 -45 -160 -68q-88 -25 -180 -25q-99 0 -188 26q-85 25 -151 77q-64 51 -102 128q-36 73 -36 181z M410 424q0 -72 44 -119t103 -47q49 0 96 21q-67 78 -102 124q-41 51 -100 136q-41 -52 -41 -115zM596 1038q0 -57 39 -135q58 28 97 65q38 36 38 87q0 33 -22 54q-23 21 -58 21q-41 0 -67 -25q-27 -25 -27 -67z" />
<glyph unicode="'" horiz-adv-x="516" d="M70 1198q0 40 15 74t41 60q25 25 59 40q32 14 73 14t73 -14q34 -15 59 -40q26 -26 41 -60t15 -74q0 -8 -5 -36q-2 -9 -6.5 -30t-6.5 -32l-18 -82l-21 -90l-55 -234h-152q-33 128 -57 234l-21 90l-18 82q-9 45 -12 62q-4 23 -4 36z" />
<glyph unicode="(" horiz-adv-x="708" d="M76 498q0 125 25 253q24 124 74 250q46 117 115 225q67 105 148 177l234 -178q-55 -89 -93 -176t-62 -175q-22 -82 -35 -181q-11 -85 -11 -195q0 -111 11 -195q13 -99 35 -180q23 -86 62 -174q37 -85 93 -174l-234 -183q-80 71 -148 178q-70 109 -115 224 q-49 125 -74 251q-25 128 -25 253z" />
<glyph unicode=")" horiz-adv-x="710" d="M37 -225q55 89 93 174q36 83 61 174q22 81 35 180q12 91 12 195q0 102 -12 195q-13 99 -35 181q-26 94 -61 175q-38 87 -93 176l233 178q84 -75 149 -177q67 -105 113 -225q48 -127 74 -250q27 -131 27 -253t-27 -253q-26 -125 -74 -251q-45 -117 -113 -224 q-67 -105 -149 -178z" />
<glyph unicode="*" horiz-adv-x="743" d="M35 946l188 98l-188 99l82 143l180 -115l-8 215h166l-11 -215l181 115l84 -143l-191 -99l191 -98l-84 -143l-181 115l11 -216h-166l8 216l-180 -115z" />
<glyph unicode="+" horiz-adv-x="1044" d="M59 584v215h344v379h238v-379h344v-215h-344v-396h-238v396h-344z" />
<glyph unicode="," horiz-adv-x="575" d="M70 199q0 47 17 84q18 39 46 67q27 27 68 46q39 18 82 18q47 0 90 -18q45 -19 76 -51q33 -34 52 -83q19 -48 19 -112q0 -137 -67 -250q-69 -117 -189 -201l-149 121q24 10 53 32q28 21 54 48q27 29 47 57q22 31 32 59q-22 -8 -53 -8q-74 0 -126 52t-52 139z" />
<glyph unicode="-" horiz-adv-x="614" d="M61 342v307h492v-307h-492z" />
<glyph unicode="." horiz-adv-x="579" d="M70 195q0 47 17 85q18 40 47 69t70 47q40 18 85 18q44 0 85 -18q40 -18 69 -47t47 -69t18 -85t-18 -85q-18 -41 -47 -70t-69 -47q-41 -18 -85 -18q-45 0 -85 18q-41 18 -70 47t-47 70q-17 38 -17 85z" />
<glyph unicode="/" horiz-adv-x="741" d="M0 -41l485 1448h256l-485 -1448h-256z" />
<glyph unicode="0" horiz-adv-x="1286" d="M37 682q0 137 38 266q37 127 112 224q75 98 189 156q113 58 267 58t267 -58q114 -58 189 -156q75 -97 112 -224q38 -129 38 -266q0 -138 -38 -267q-38 -130 -112 -226t-189 -155t-267 -59t-267 59t-189 155t-112 226q-38 129 -38 267zM453 682q0 -175 46 -258 q47 -84 144 -84q98 0 144 84q47 85 47 258q0 174 -47 257t-144 83t-144 -83q-46 -82 -46 -257z" />
<glyph unicode="1" horiz-adv-x="989" d="M0 854l522 512h357v-1366h-414v840l-232 -230z" />
<glyph unicode="2" horiz-adv-x="1255" d="M25 1155q64 67 130 108q74 45 146 71q82 29 153 40q77 12 148 12q135 0 241 -34t184 -98t119 -149q42 -87 42 -190q0 -66 -22 -135q-21 -66 -72 -132q-53 -69 -133 -137q-89 -76 -205 -151h444v-360h-1116v322l267 190l188 137q66 49 120 96q48 42 70 69q25 31 32 52 t7 49q0 50 -46 78q-47 29 -112 29q-109 0 -196 -38q-88 -38 -164 -103z" />
<glyph unicode="3" horiz-adv-x="1263" d="M25 188l202 283q41 -36 88 -59q53 -26 99 -41q50 -17 97 -24q45 -7 87 -7q101 0 151 28q48 27 48 64q0 19 -7 32t-30 22q-27 11 -65 15q-47 5 -109 5h-54q-40 0 -60 -1q-9 0 -27 -0.5t-26 -1.5q-16 -1 -32 -1v366q19 0 36 -1t55 -1h60h48q98 0 143 18t45 50q0 46 -56 67 q-57 21 -147 21q-88 0 -175 -30t-158 -89l-195 258q91 100 232 163q139 62 341 62q142 0 248 -27q102 -26 178 -78q71 -49 108 -120q36 -69 36 -153q0 -55 -23 -106t-62 -90q-42 -42 -95 -69t-121 -38q54 -6 114 -31q57 -24 104 -65q46 -40 76 -97q29 -55 29 -127 q0 -93 -43 -167q-44 -76 -121 -129q-78 -54 -187 -84t-243 -30q-202 0 -354 61q-148 59 -235 152z" />
<glyph unicode="4" horiz-adv-x="1302" d="M37 219v318l498 829h573v-786h158v-361h-158v-219h-414v219h-657zM436 580h258v430z" />
<glyph unicode="5" horiz-adv-x="1282" d="M66 168l221 291q70 -58 164 -89q91 -30 182 -30q104 0 148 35t44 78q0 46 -42 79t-138 33q-79 0 -139 -22q-63 -23 -115 -72l-285 66v829h1045v-360h-631v-193q52 48 124 76q76 29 161 29q87 0 168 -32q80 -32 140 -90t96 -141t36 -184q0 -112 -41 -205 q-40 -92 -120 -156q-82 -67 -191 -100q-114 -35 -256 -35q-180 0 -328 51q-140 48 -243 142z" />
<glyph unicode="6" horiz-adv-x="1280" d="M37 680q0 174 52 303q52 130 148 221q93 89 226 136q132 47 291 47q114 0 230 -32q113 -31 196 -87l-174 -320q-63 42 -118 58q-57 16 -134 16q-54 0 -105 -13q-54 -14 -96 -43q-44 -31 -71 -75q-27 -45 -27 -107v-4q53 68 138 104q86 36 179 36q92 0 179 -30 q88 -30 155 -87t108 -143q41 -87 41 -193q0 -112 -43 -202q-44 -93 -118 -155q-79 -66 -181 -100q-107 -35 -225 -35q-166 0 -291 55q-123 54 -202 148q-81 96 -119 223q-39 129 -39 279zM453 514q2 -36 15 -67q13 -30 38 -55q22 -22 63 -38q36 -14 93 -14q78 0 125 34 q49 35 49 77q0 31 -19 55q-16 21 -46 37q-25 14 -61 20q-34 6 -65 6q-57 0 -102 -11q-51 -12 -90 -44z" />
<glyph unicode="7" horiz-adv-x="1177" d="M37 1006v360h1116v-287l-455 -1079h-452l432 1006h-641z" />
<glyph unicode="8" horiz-adv-x="1290" d="M37 365q0 110 72 200q73 91 188 140q-110 46 -173 119q-65 76 -65 196q0 100 53 170q54 72 135 114q82 43 188 63q102 19 210 19t210 -19q106 -20 188 -63t136 -114q52 -68 52 -170q0 -121 -66 -196q-65 -73 -174 -119q118 -50 190 -140t72 -200q0 -106 -52 -179 q-53 -74 -138 -120q-89 -49 -196 -69q-115 -22 -222 -22q-110 0 -223 22q-106 21 -195 69q-85 46 -138 120q-52 73 -52 179zM457 412q0 -46 50 -73q51 -28 138 -28q84 0 137 28q52 28 52 73q0 20 -18 38q-15 15 -45 30q-27 14 -60 24q-27 9 -66 14q-36 -5 -66 -14 q-33 -10 -61 -24t-44 -30q-17 -17 -17 -38zM479 958q0 -32 51 -58q50 -25 115 -36q65 11 114 36q50 26 50 58q0 42 -43 67q-44 26 -121 26q-78 0 -122 -26t-44 -67z" />
<glyph unicode="9" horiz-adv-x="1280" d="M25 897q0 112 43 202q44 93 118 155q79 66 181 100q107 35 225 35q166 0 291 -55q123 -54 202 -148q81 -96 119 -223q39 -129 39 -279q0 -174 -52 -303q-52 -130 -148 -221q-93 -89 -226 -136q-132 -47 -291 -47q-114 0 -230 32q-113 31 -196 87l174 320q63 -42 118 -58 q57 -16 134 -16q66 0 120 18q50 17 94 51q41 32 63 74q22 43 22 93v6q-53 -68 -138 -104t-179 -36q-92 0 -179 30q-88 30 -155 87q-68 57 -108 142q-41 87 -41 194zM444 913q0 -31 19 -55q16 -21 46 -37q25 -14 61 -20q35 -6 65 -6q57 0 102 11q51 12 90 44q-6 70 -54 122 t-157 52q-78 0 -124 -34q-48 -36 -48 -77z" />
<glyph unicode=":" horiz-adv-x="544" d="M70 195q0 47 17 85q18 40 47 69t70 47q40 18 85 18q44 0 85 -18q40 -18 69 -47t47 -69t18 -85t-18 -85q-18 -41 -47 -70t-69 -47q-41 -18 -85 -18q-45 0 -85 18q-41 18 -70 47t-47 70q-17 38 -17 85zM70 784q0 47 17 85q18 41 47 70t70 47q40 18 85 18q44 0 85 -18 q40 -18 69 -47t47 -70t18 -85t-18 -85q-18 -40 -47 -69t-69 -47q-41 -18 -85 -18q-45 0 -85 18q-41 18 -70 47t-47 69q-17 38 -17 85z" />
<glyph unicode=";" horiz-adv-x="575" d="M70 211q0 47 17 84q18 39 46 67q29 29 68 47q37 17 82 17q49 0 90 -17q43 -18 76 -52t52 -83q19 -48 19 -112q0 -137 -67 -250q-69 -117 -189 -201l-149 121q24 10 53 32q28 21 54 48q27 29 47 57q21 30 32 60q-25 -9 -53 -9q-73 0 -126 53q-52 52 -52 138zM70 786 q0 47 17 84q19 41 47 69q29 29 70 47q40 18 85 18q44 0 85 -18q40 -18 69 -47q28 -28 47 -69q18 -39 18 -84q0 -44 -18 -85t-47 -70q-31 -31 -69 -48q-41 -18 -85 -18q-45 0 -85 18t-70 48q-29 29 -47 70q-17 38 -17 85z" />
<glyph unicode="&#x3c;" horiz-adv-x="1044" d="M59 553v266l926 369v-256l-684 -248l684 -244v-256z" />
<glyph unicode="=" horiz-adv-x="1044" d="M59 389v215h926v-215h-926zM59 764v215h926v-215h-926z" />
<glyph unicode="&#x3e;" horiz-adv-x="1044" d="M59 184v256l684 244l-684 248v256l926 -369v-266z" />
<glyph unicode="?" horiz-adv-x="921" d="M0 1200q90 96 212 141t243 45q208 0 329 -88t121 -241q0 -109 -45 -172q-48 -67 -100 -108l-101 -81q-45 -38 -45 -88q0 -25 8 -46q8 -20 15 -30l-324 -73q-26 37 -40 84q-15 49 -15 110q0 84 36 137q35 51 79 86q39 31 79 56q35 22 35 47q0 19 -16 31q-17 12 -63 12 q-40 0 -91 -23q-49 -22 -88 -63zM248 195q0 47 17 85q18 40 47 69t70 47q40 18 85 18t85 -18q41 -18 70 -47t47 -69q17 -38 17 -85t-17 -85q-18 -41 -47 -70t-70 -47q-40 -18 -85 -18t-85 18q-41 18 -70 47t-47 70q-17 38 -17 85z" />
<glyph unicode="@" horiz-adv-x="1603" d="M72 500q0 162 67 308q66 144 179 257q108 108 260 176q147 66 307 66q148 0 268 -50q119 -50 203 -132q84 -83 129 -192t45 -231q0 -136 -45 -237t-114 -165q-70 -66 -148 -95q-82 -31 -150 -31q-97 0 -146 41q-48 41 -65 94l-4 15q-52 -78 -125 -114q-72 -36 -139 -36 q-75 0 -137 28q-59 27 -101 76q-42 50 -62 113q-22 69 -22 139q0 100 37 187q37 88 99 154q62 67 141 107t168 40q83 0 150 -31q65 -30 100 -84l18 90h324l-95 -444q-3 -15 -4 -28q-2 -26 -2 -27q0 -42 16 -61q14 -17 42 -17q30 0 59 18t51 55q21 35 37 91q14 49 14 122 q0 119 -37 212q-38 95 -110 163q-73 69 -173 104q-102 36 -230 36q-142 0 -273 -58q-128 -57 -227 -154t-156 -227q-57 -129 -57 -272q0 -120 43 -221q44 -104 118 -179q72 -74 179 -118q104 -43 227 -43q101 0 191 28q89 28 176 82l49 -69q-96 -62 -204 -96 q-103 -33 -222 -33q-141 0 -258 49q-120 50 -206 136q-87 86 -136 205q-49 117 -49 253zM604 559q0 -58 35 -95q34 -36 94 -36q56 0 93 28q36 27 59 56l39 195q-14 20 -43 38q-30 19 -76 19q-49 0 -84 -17q-36 -17 -64 -47q-27 -28 -40 -65q-13 -36 -13 -76z" />
<glyph unicode="A" horiz-adv-x="1454" d="M-37 0l504 1366h520l504 -1366h-469l-49 160h-492l-49 -160h-469zM592 520h270l-135 441z" />
<glyph unicode="B" horiz-adv-x="1427" d="M111 0v1366h829q105 0 183 -32q75 -31 126 -82q49 -49 73 -112t24 -122q0 -128 -67 -210q-65 -80 -167 -103q53 -7 102 -37q46 -28 83 -73q37 -44 56 -101q19 -56 19 -123q0 -73 -24 -139q-23 -63 -75 -118q-50 -53 -126 -83q-79 -31 -178 -31h-858zM524 344h332 q46 0 71 24t25 62t-25 63t-71 25h-332v-174zM524 862h320q32 0 57 23t25 59q0 34 -25 56t-57 22h-320v-160z" />
<glyph unicode="C" horiz-adv-x="1427" d="M37 682q0 158 57 288q56 129 158 223q101 93 238 144q141 52 298 52q135 0 237 -36t177 -92q78 -58 126 -128q52 -76 81 -142l-356 -166q-11 37 -38 76q-24 35 -61 64q-34 27 -77 43q-42 16 -89 16q-74 0 -135 -27q-64 -28 -105 -72q-45 -48 -68 -109q-23 -60 -23 -134 t23 -134q23 -61 68 -109q41 -44 105 -72q61 -27 135 -27q47 0 89 16q43 16 77 43q37 29 61 63q26 37 38 77l356 -164q-27 -60 -81 -139q-50 -73 -125 -130q-74 -56 -177 -94q-101 -37 -238 -37q-157 0 -298 52q-137 51 -238 144q-102 94 -158 223q-57 130 -57 288z" />
<glyph unicode="D" horiz-adv-x="1507" d="M111 0v1366h610q162 0 299 -45q136 -45 237 -132q100 -87 157 -214q56 -125 56 -291t-56 -291q-57 -127 -157 -215t-237 -133t-297 -45h-612zM524 360h197q77 0 139 27t104 71q41 43 64 102q23 60 23 124q0 70 -21 128q-21 59 -60 101q-41 45 -103 68q-66 25 -144 25 h-199v-646z" />
<glyph unicode="E" horiz-adv-x="1220" d="M111 0v1366h1036v-360h-623v-136h609v-360h-609v-150h623v-360h-1036z" />
<glyph unicode="F" horiz-adv-x="1212" d="M111 0v1366h1036v-360h-623v-136h609v-360h-609v-510h-413z" />
<glyph unicode="G" horiz-adv-x="1486" d="M37 682q0 167 59 295q60 131 162 222q100 90 239 140q138 50 291 50q121 0 220 -31q93 -29 170 -81q72 -48 126 -115q52 -64 85 -130l-349 -178q-18 36 -38 61q-29 37 -56 56q-34 24 -73 39q-38 14 -85 14q-74 0 -135 -27q-64 -28 -105 -72q-45 -48 -68 -109 q-23 -60 -23 -134t23 -134q23 -61 68 -109q41 -44 105 -72q61 -27 135 -27q60 0 120 18q58 17 93 43v50h-253v360h665v-559q-112 -126 -268 -202q-153 -75 -357 -75q-153 0 -291 50q-139 50 -239 140q-102 91 -162 222q-59 128 -59 295z" />
<glyph unicode="H" horiz-adv-x="1538" d="M111 0v1366h413v-483h490v483h413v-1366h-413v522h-490v-522h-413z" />
<glyph unicode="I" horiz-adv-x="634" d="M111 0v1366h413v-1366h-413z" />
<glyph unicode="J" horiz-adv-x="1019" d="M0 86l168 315q32 -21 79 -42q42 -19 97 -19q67 0 110 41q42 41 42 113v872h413v-879q0 -130 -38 -227t-107 -160q-70 -64 -167 -94q-101 -31 -216 -31q-96 0 -201 25q-100 24 -180 86z" />
<glyph unicode="K" horiz-adv-x="1374" d="M111 0v1366h413v-512l359 512h506l-517 -635l539 -731h-504l-307 481l-76 -102v-379h-413z" />
<glyph unicode="L" horiz-adv-x="1097" d="M111 0v1366h413v-1006h518v-360h-931z" />
<glyph unicode="M" horiz-adv-x="1843" d="M111 0v1366h571l240 -655l239 655h572v-1366h-414v821l-305 -821h-185l-305 821v-821h-413z" />
<glyph unicode="N" horiz-adv-x="1536" d="M111 0v1366h426l475 -647v647h413v-1366h-397l-504 692v-692h-413z" />
<glyph unicode="O" horiz-adv-x="1568" d="M37 682q0 158 57 288q56 129 158 223q100 93 237 144q139 52 295 52t295 -52q138 -52 238 -144q102 -94 158 -223q57 -130 57 -288t-57 -288q-56 -129 -158 -223q-100 -92 -238 -144q-139 -52 -295 -52t-295 52q-137 51 -237 144q-102 94 -158 223q-57 130 -57 288z M457 682q0 -74 23 -134q24 -63 67 -109q41 -44 103 -72q60 -27 134 -27q75 0 135 27q62 28 103 72q43 46 67 109q23 60 23 134t-23 134q-24 63 -67 109q-41 44 -103 72q-60 27 -135 27q-74 0 -134 -27q-62 -28 -103 -72q-43 -46 -67 -109q-23 -60 -23 -134z" />
<glyph unicode="P" horiz-adv-x="1355" d="M111 0v1366h729q121 0 211 -37q92 -38 154 -101q62 -64 94 -150q32 -87 32 -181q0 -95 -32 -180q-32 -86 -94 -149t-154 -101q-90 -37 -211 -37h-316v-430h-413zM524 791h262q55 0 90 26t35 80q0 56 -35 82q-36 27 -90 27h-262v-215z" />
<glyph unicode="Q" horiz-adv-x="1568" d="M37 682q0 158 57 288q56 129 158 223q100 93 237 144q139 52 295 52t295 -52q138 -52 238 -144q102 -94 158 -223q57 -130 57 -288q0 -139 -45 -256q-45 -116 -125 -207l74 -92l-287 -229l-96 118q-131 -41 -269 -41q-156 0 -295 52q-137 51 -237 144q-102 94 -158 223 q-57 130 -57 288zM457 682q0 -74 23 -134q24 -63 67 -109q41 -44 103 -72q60 -27 134 -27h13l-95 119l287 229l103 -131q20 53 20 125q0 74 -23 134q-24 63 -67 109q-41 44 -103 72q-60 27 -135 27q-74 0 -134 -27q-62 -28 -103 -72q-43 -46 -67 -109q-23 -60 -23 -134z" />
<glyph unicode="R" horiz-adv-x="1388" d="M111 0v1366h729q121 0 211 -37q92 -38 154 -101q62 -64 94 -150q32 -87 32 -181q0 -91 -23 -157q-24 -68 -60 -118q-37 -50 -79 -84q-42 -33 -84 -55l248 -483h-471l-188 430h-150v-430h-413zM524 791h252q54 0 94 25q41 26 41 83q0 55 -41 81t-94 26h-252v-215z" />
<glyph unicode="S" horiz-adv-x="1255" d="M6 193l215 307q78 -74 190 -125q111 -51 251 -51q60 0 105 16q46 16 46 57q0 33 -56 48q-58 15 -142 30q-95 17 -183 38q-96 23 -183 72q-82 46 -141 131q-57 83 -57 218q0 86 36 168t108 145q75 66 177 102q104 37 247 37q166 0 315 -47q146 -46 264 -143l-221 -293 q-90 67 -197 102q-102 33 -204 33q-63 0 -83 -17q-22 -19 -22 -44q0 -33 56 -49q62 -18 141 -32q68 -12 183 -40q94 -23 183 -72q83 -46 141 -127q56 -78 56 -206q0 -111 -41 -201q-40 -88 -117 -150t-185 -93q-111 -32 -247 -32q-219 0 -372 60t-263 158z" />
<glyph unicode="T" horiz-adv-x="1218" d="M37 1006v360h1145v-360h-365v-1006h-414v1006h-366z" />
<glyph unicode="U" horiz-adv-x="1570" d="M111 561v805h419v-791q0 -96 64 -166q63 -69 192 -69q128 0 191 69t63 166v791h420v-803q0 -126 -41 -235q-41 -108 -124 -187t-210 -122q-129 -44 -299 -44q-171 0 -300 44q-128 44 -211 122t-123 186q-41 109 -41 234z" />
<glyph unicode="V" horiz-adv-x="1454" d="M-37 1366h469l295 -920l295 920h469l-504 -1366h-520z" />
<glyph unicode="W" horiz-adv-x="1953" d="M-25 1366h463l176 -836l207 836h312l206 -836l174 836h465l-391 -1366h-434l-176 774l-176 -774h-434z" />
<glyph unicode="X" horiz-adv-x="1400" d="M-37 0l457 700l-426 666h485l221 -389l218 389h489l-426 -664l457 -702h-488l-250 418l-249 -418h-488z" />
<glyph unicode="Y" horiz-adv-x="1359" d="M-37 1366h465l254 -461l250 461h465l-508 -823v-543h-414v543z" />
<glyph unicode="Z" horiz-adv-x="1228" d="M74 0v328l520 678h-520v360h1067v-326l-523 -680h537v-360h-1081z" />
<glyph unicode="[" horiz-adv-x="649" d="M111 -389v1778h501v-234h-245v-1311h245v-233h-501z" />
<glyph unicode="\" horiz-adv-x="741" d="M0 1407h256l485 -1448h-256z" />
<glyph unicode="]" horiz-adv-x="649" d="M37 -156h246v1311h-246v234h502v-1778h-502v233z" />
<glyph unicode="^" horiz-adv-x="921" d="M39 682l293 684h264l287 -684h-258l-164 440l-162 -440h-260z" />
<glyph unicode="_" horiz-adv-x="1155" d="M-6 -82h1167v-233h-1167v233z" />
<glyph unicode="`" horiz-adv-x="563" d="M0 1434h317l246 -295h-246z" />
<glyph unicode="a" horiz-adv-x="1144" d="M35 301q0 93 33 153t82 97q47 35 109 51q56 14 116 14q100 0 178 -28q80 -29 121 -80v102q0 54 -46 88q-47 35 -139 35q-71 0 -142 -25t-132 -71l-125 227q103 81 227 115q129 35 240 35q87 0 179 -19q86 -18 156 -65q68 -46 109 -128t41 -204v-598h-368v94 q-41 -53 -124 -86q-82 -33 -175 -33q-54 0 -116 20q-61 20 -109 59q-49 40 -82 102t-33 145zM399 295q0 -23 12 -38q14 -17 29 -25q16 -8 42 -13q21 -4 46 -4q45 0 85 13q44 14 61 40v56q-17 26 -61 40q-40 13 -85 13t-88 -19q-41 -18 -41 -63z" />
<glyph unicode="b" horiz-adv-x="1220" d="M102 0v1366h369v-481q60 72 131 100q73 29 148 29q90 0 171 -35q76 -33 138 -101q57 -63 93 -163q34 -95 34 -219q0 -126 -35 -225q-34 -96 -94 -162t-138 -100t-169 -34q-76 0 -146 29q-71 29 -133 100v-104h-369zM471 367q28 -34 72 -50t82 -16q75 0 130 50 q54 49 54 145q0 92 -54 142q-55 50 -130 50q-39 0 -82 -17q-46 -18 -72 -50v-254z" />
<glyph unicode="c" horiz-adv-x="1028" d="M35 496q0 118 43 213q43 96 118 163q76 68 176 105q101 37 218 37q83 0 152 -18q72 -19 121 -44q54 -28 89 -60t58 -65l-238 -223q-24 37 -64 60q-42 24 -102 24q-78 0 -136 -48t-58 -144q0 -97 58 -146t136 -49q59 0 102 26q41 25 64 60l238 -225q-24 -34 -58 -64 q-39 -34 -89 -60q-53 -27 -121 -45q-69 -18 -152 -18q-117 0 -218 37q-100 37 -176 105q-74 66 -118 164q-43 95 -43 215z" />
<glyph unicode="d" horiz-adv-x="1220" d="M35 496q0 124 34 219q36 100 93 163q62 68 138 101q81 35 171 35q74 0 147 -29t132 -100v481h368v-1366h-368v104q-61 -70 -134 -100q-70 -29 -145 -29q-91 0 -169 34t-138 100t-94 162q-35 99 -35 225zM412 496q0 -93 54 -144t130 -51q39 0 82 17q45 18 72 51v254 q-26 32 -72 49q-44 16 -82 16q-75 0 -130 -50q-54 -50 -54 -142z" />
<glyph unicode="e" horiz-adv-x="1112" d="M35 496q0 106 39 201q41 99 110 165q75 72 170 111q100 41 219 41q107 0 203 -38q93 -37 163 -110q68 -71 109 -175q39 -100 39 -234v-76h-671q17 -48 68 -86q53 -39 145 -39q17 0 52 5q27 4 64 14q25 7 63 22q29 12 48 29l152 -228q-38 -30 -87 -54q-48 -23 -106 -39 q-52 -14 -115 -22q-64 -8 -114 -8q-116 0 -217 36q-99 35 -174 103q-73 66 -117 162q-43 95 -43 220zM412 614h325q-5 18 -13 37t-28 39t-48 31q-30 12 -75 12q-43 0 -71 -12t-47 -31t-29 -39q-9 -17 -14 -37z" />
<glyph unicode="f" horiz-adv-x="759" d="M14 670v319h164v45q0 76 28 143q26 62 78 111q51 48 119 73t152 25q87 0 171 -25q86 -25 138 -81l-133 -205q-33 39 -92 39q-35 0 -64 -21q-28 -21 -28 -59v-45h201v-319h-201v-670h-369v670h-164z" />
<glyph unicode="g" horiz-adv-x="1218" d="M35 520q0 124 34 216q35 96 92 155q60 63 137 92q82 31 171 31q76 0 148 -29t131 -100v104h368v-883q0 -106 -27 -186q-26 -76 -73 -136q-43 -55 -107 -92q-62 -36 -127 -57q-64 -20 -134 -28q-74 -8 -130 -8q-132 0 -241 34q-108 34 -209 113l155 262q58 -58 136 -83 t159 -25q30 0 73 8q38 7 75 31q35 23 58 62q24 41 24 105v54q-64 -73 -133 -103t-146 -30q-92 0 -169 29q-78 29 -137 90q-58 59 -93 154q-35 94 -35 220zM412 520q0 -90 54 -129t130 -39q34 0 80 17q44 16 72 47v209q-28 31 -72 47t-80 16q-76 0 -130 -39t-54 -129z" />
<glyph unicode="h" horiz-adv-x="1245" d="M104 0v1366h369v-489q43 49 126 93t214 44q86 0 149 -24q62 -24 102 -65q39 -40 59 -99q20 -58 20 -119v-707h-369v551q0 77 -39 107t-104 30t-100 -25q-34 -24 -58 -53v-610h-369z" />
<glyph unicode="i" d="M80 1268q0 45 16 81q17 37 44 65q27 27 66 44t81 17t81 -17q37 -16 65 -44t44 -65q17 -39 17 -81t-17 -81t-44 -66t-65 -44q-36 -16 -81 -16t-81 16q-39 17 -66 44t-44 66q-16 36 -16 81zM102 0v989h369v-989h-369z" />
<glyph unicode="j" d="M-217 -334l88 273q32 -24 55 -31q26 -8 68 -8q52 0 80 35t28 108v946h369v-946q0 -96 -24 -177t-74 -140t-129 -94q-75 -33 -185 -33q-59 0 -94 4q-46 5 -69 11q-36 9 -57 20q-23 12 -56 32zM80 1268q0 45 16 81q17 37 44 65q27 27 66 44t81 17t81 -17q37 -16 65 -44 t44 -65q17 -39 17 -81t-17 -81t-44 -66t-65 -44q-36 -16 -81 -16t-81 16q-39 17 -66 44t-44 66q-16 36 -16 81z" />
<glyph unicode="k" horiz-adv-x="1140" d="M102 0v1366h369v-729l227 352h445l-340 -450l362 -539h-452l-170 319l-72 -96v-223h-369z" />
<glyph unicode="l" d="M102 0v1366h369v-1366h-369z" />
<glyph unicode="m" horiz-adv-x="1837" d="M102 0v989h369v-112q16 20 47 45q28 23 73 45q35 18 95 33q54 14 113 14q104 0 177 -41q72 -41 107 -133q20 32 56 63t79 55q47 26 98 40q58 16 114 16q137 0 221 -72t84 -225v-717h-369v578q0 43 -26 77q-26 33 -87 33q-60 0 -97 -28q-35 -26 -54 -50v-610h-369v578 q0 44 -24 77t-88 33q-59 0 -96 -28q-35 -26 -54 -50v-610h-369z" />
<glyph unicode="n" horiz-adv-x="1243" d="M102 0v989h369v-112q43 49 126 93t214 44q82 0 148 -25q62 -24 103 -66q38 -40 59 -100q20 -58 20 -121v-702h-369v547q0 77 -39 109q-40 32 -104 32q-65 0 -100 -25q-34 -24 -58 -53v-610h-369z" />
<glyph unicode="o" horiz-adv-x="1181" d="M35 496q0 103 38 197q37 93 108 165t174 114t235 42q130 0 235 -42q104 -42 175 -114q72 -74 109 -165q38 -94 38 -197t-38 -199q-36 -92 -109 -166q-71 -72 -175 -114q-105 -42 -235 -42q-132 0 -235 42t-174 114t-108 166q-38 96 -38 199zM414 496q0 -84 45 -140 q45 -55 131 -55t132 55t46 140q0 82 -46 137t-132 55t-131 -55t-45 -137z" />
<glyph unicode="p" horiz-adv-x="1218" d="M102 -377v1366h369v-104q60 72 130 100q72 29 149 29q93 0 171 -34q80 -35 137 -99t92 -162q34 -95 34 -223q0 -129 -34 -225q-34 -97 -92 -162q-58 -66 -137 -100q-78 -34 -171 -34q-78 0 -148 29t-131 100v-481h-369zM471 369q26 -33 71 -50q46 -18 81 -18q73 0 129 50 q55 49 55 145q0 93 -55 142q-56 50 -129 50q-37 0 -80 -17q-46 -18 -72 -50v-252z" />
<glyph unicode="q" horiz-adv-x="1218" d="M35 496q0 127 33 223q33 97 91 162q56 64 138 99q78 34 172 34q76 0 148 -29t131 -100v104h368v-1366h-368v481q-60 -70 -132 -100q-70 -29 -147 -29q-94 0 -172 34q-80 35 -138 100q-59 66 -91 162q-33 97 -33 225zM412 496q0 -96 55 -145q56 -50 129 -50q34 0 81 18 q45 17 71 50v252q-26 32 -72 50q-42 17 -80 17q-73 0 -129 -50q-55 -49 -55 -142z" />
<glyph unicode="r" horiz-adv-x="798" d="M102 0v989h369v-108q23 27 57 51q37 26 75 44t84 31q40 11 87 11v-352q-29 10 -84 10q-58 0 -124 -17t-95 -53v-606h-369z" />
<glyph unicode="s" horiz-adv-x="1003" d="M18 127l148 248q27 -21 73 -45q40 -21 93 -40q41 -15 99 -29q45 -11 91 -11q57 0 78 12t21 31q0 25 -42 33q-55 10 -104 17q-61 9 -135 24q-76 16 -135 50q-63 37 -104 97q-42 62 -42 166q0 67 29 128q28 60 85 106t138 73q82 27 191 27q123 0 233 -35q109 -35 195 -92 l-135 -240q-48 40 -126 71q-81 32 -165 32q-42 0 -67 -12t-25 -31q0 -21 42 -29q91 -16 103 -18q68 -10 135 -25q76 -17 135 -53q62 -38 104 -101t42 -166q0 -72 -32 -136q-30 -61 -92 -107q-60 -45 -148 -71q-89 -26 -197 -26q-68 0 -137 12q-85 15 -135 31q-55 18 -119 49 q-57 28 -95 60z" />
<glyph unicode="t" horiz-adv-x="782" d="M14 670v319h164v271h369v-271h201v-319h-201v-277q0 -39 22 -65q23 -27 60 -27q25 0 46 6t27 12l66 -278q-27 -26 -92 -46t-158 -20q-166 0 -253 78t-87 234v383h-164z" />
<glyph unicode="u" horiz-adv-x="1241" d="M102 283v706h369v-549q0 -75 38 -107t105 -32q61 0 98 26q36 25 58 52v610h369v-989h-369v111q-25 -26 -53 -49q-27 -22 -73 -43q-39 -18 -95 -31q-57 -13 -119 -13q-82 0 -148 25q-60 23 -103 66q-40 40 -58 97q-19 60 -19 120z" />
<glyph unicode="v" horiz-adv-x="1095" d="M-31 989h389l189 -565l190 565h389l-383 -989h-391z" />
<glyph unicode="w" horiz-adv-x="1648" d="M-25 989h379l131 -545l174 545h330l172 -545l131 545h381l-287 -989h-401l-162 553l-159 -553h-402z" />
<glyph unicode="x" horiz-adv-x="1067" d="M-25 0l324 508l-303 481h403l133 -231l134 231h403l-303 -481l326 -508h-404l-153 262l-158 -262h-402z" />
<glyph unicode="y" horiz-adv-x="1095" d="M-31 989h389l189 -565l190 565h389l-430 -1112q-33 -86 -80 -139q-49 -55 -105 -84q-58 -30 -128 -42q-66 -11 -147 -13q-17 0 -29 1t-40 3q-14 1 -42 5q-23 3 -33 7l51 328q16 -10 38 -15q19 -4 40 -4q111 0 129 39l8 21z" />
<glyph unicode="z" horiz-adv-x="995" d="M68 0v270l348 400h-348v319h852v-258l-357 -412h365v-319h-860z" />
<glyph unicode="{" horiz-adv-x="647" d="M4 403v193q53 0 80 37t27 94v283q0 89 31 158q32 70 84 120q53 50 121 75q70 26 142 26h123v-234h-123q-51 0 -87 -38q-35 -36 -35 -105v-326q0 -63 -22 -115q-20 -48 -73 -71q52 -23 73 -72q22 -52 22 -115v-323q0 -67 35 -106q36 -40 87 -40h123v-233h-123 q-74 0 -142 25q-67 25 -121 74q-52 47 -84 118q-31 68 -31 160v284q0 58 -27 95q-26 36 -80 36z" />
<glyph unicode="|" horiz-adv-x="454" d="M111 -41v1448h233v-1448h-233z" />
<glyph unicode="}" horiz-adv-x="647" d="M35 -156h123q51 0 87 40q36 41 36 106v323q0 65 21 115q21 49 73 72q-53 23 -73 71q-21 49 -21 115v326q0 68 -36 105q-36 38 -87 38h-123v234h123q72 0 142 -26q68 -25 121 -75t84 -120q32 -72 32 -158v-283q0 -58 26 -94q27 -37 80 -37v-193q-54 0 -80 -36t-26 -95 v-284q0 -90 -32 -160q-32 -71 -84 -118q-54 -49 -121 -74q-68 -25 -142 -25h-123v233z" />
<glyph unicode="~" horiz-adv-x="1060" d="M51 848q6 86 23 182q17 94 52 167q36 76 96 122q61 47 157 47q68 0 113 -25q42 -23 69 -61q25 -35 41 -81l26 -81q15 -47 22 -61q12 -25 34 -25q25 0 40 34q17 38 25 84q10 54 14 108l9 108l238 -29q-6 -86 -23 -182q-17 -93 -51 -166q-35 -74 -95 -121q-61 -47 -157 -47 q-68 0 -113 25q-42 23 -69 61q-26 36 -41 80l-26 80q-15 47 -22 61q-13 25 -34 25q-25 0 -40 -34q-17 -38 -25 -84q-10 -54 -14 -108q-6 -80 -7 -106z" />
<glyph unicode="&#xa1;" d="M68 -377l51 858h332l55 -858h-438zM68 797q0 45 17 83q18 40 47 69q28 28 69 47q39 18 84 18t84 -18t68 -47t47 -69t18 -83q0 -45 -18 -85q-18 -41 -47 -70t-68 -47q-37 -17 -84 -17t-84 17q-41 19 -69 47q-29 29 -47 70q-17 38 -17 85z" />
<glyph unicode="&#xa2;" horiz-adv-x="1028" d="M35 496q0 100 33 186t90 152q54 63 137 108q81 44 174 62v153h258v-158q111 -23 180 -72q70 -50 103 -100l-238 -223q-24 37 -64 60q-42 24 -102 24q-78 0 -136 -48t-58 -144q0 -97 58 -146t136 -49q59 0 102 26q41 25 64 60l238 -225q-34 -48 -103 -99q-68 -50 -180 -73 v-195h-258v191q-97 17 -174 59q-80 44 -137 110t-90 152t-33 189z" />
<glyph unicode="&#xa3;" horiz-adv-x="1189" d="M53 553v223h78q-21 38 -33 80q-12 40 -12 86q0 111 50 194q49 82 129 139t173 84q94 27 183 27q205 0 333 -62q132 -64 205 -204l-328 -188q-23 66 -65 94q-44 29 -92 29q-62 0 -99 -36q-36 -35 -36 -85q0 -47 14 -82l31 -76h274v-223h-223q-5 -47 -33 -98 q-29 -52 -72 -76q26 9 48 10q32 2 41 2q39 0 69 -8q23 -6 54 -17q46 -16 52 -18q27 -8 58 -8q61 0 98 19q35 18 58 49l157 -326q-42 -47 -119 -76q-82 -31 -208 -31q-65 0 -119 14q-63 16 -98 29l-84 30q-38 13 -74 13q-57 0 -114 -20q-62 -22 -120 -55l-135 270 q43 23 62 37q32 22 56 45q26 24 41 53t15 62q0 24 -5 51q-3 18 -13 49h-197z" />
<glyph unicode="&#xa4;" horiz-adv-x="1478" d="M25 446v195h63v41v23q0 8 2 24h-65v195h102q39 110 105 192q71 88 161 147q91 60 206 93q114 33 241 33q134 0 236 -36t177 -92q78 -58 126 -128q52 -76 81 -142l-356 -166q-11 37 -38 76q-25 36 -60 64q-33 26 -78 43q-42 16 -88 16q-76 0 -138 -27q-61 -27 -104 -73 h365v-195h-453q-2 -16 -2 -23v-24v-20q0 -7 2 -21h453v-195h-371q44 -49 107 -77q64 -29 141 -29q46 0 88 16q45 17 78 43q34 27 60 63q26 37 38 77l356 -164q-27 -60 -81 -139q-50 -73 -125 -130q-74 -56 -177 -94q-101 -37 -237 -37q-129 0 -243 33q-115 33 -207 94 q-93 62 -161 149q-66 85 -104 195h-100z" />
<glyph unicode="&#xa5;" horiz-adv-x="1359" d="M-37 1366h465l254 -461l250 461h465l-375 -608h291v-215h-424v-109h424v-215h-424v-219h-414v219h-424v215h424v109h-424v215h289z" />
<glyph unicode="&#xa6;" horiz-adv-x="454" d="M111 -41v647h233v-647h-233zM111 760v647h233v-647h-233z" />
<glyph unicode="&#xa7;" horiz-adv-x="1024" d="M25 -2l141 229q33 -29 66 -50q37 -23 84 -46q39 -19 93 -34q46 -13 95 -13q54 0 85 12q32 12 32 43q0 35 -42 51q-41 16 -104 30l-135 31q-75 18 -135 52q-62 35 -104 95t-42 161q0 49 18 90q19 44 42 72q25 32 53 52q33 25 51 34q-85 40 -125 111q-39 69 -39 155 q0 68 34 126q35 60 93 99q61 41 141 65q78 23 173 23q166 0 267 -40q97 -38 161 -93l-133 -215q-55 42 -128 70q-76 29 -149 29q-106 0 -106 -56q0 -28 42 -43q30 -11 103 -25q79 -15 135 -28q76 -17 135 -50q64 -36 104 -92q42 -58 42 -155q0 -79 -41 -150 q-41 -72 -113 -112q65 -31 109 -90q45 -60 45 -162q0 -80 -36 -143q-37 -65 -99 -108q-63 -43 -149 -66q-87 -23 -185 -23q-161 0 -281 49t-198 115zM412 621q0 -55 42 -79q43 -25 87 -32q39 16 55 41q14 22 14 59q0 46 -29 72t-81 37q-53 -11 -71 -37q-17 -26 -17 -61z" />
<glyph unicode="&#xa8;" horiz-adv-x="651" d="M-78 1266q0 78 52 130t130 52t130 -52q53 -53 53 -130t-53 -130t-130 -53t-130 53q-52 52 -52 130zM365 1266q0 77 53 130q52 52 129 52q79 0 131 -52q53 -53 53 -130t-53 -130t-131 -53q-76 0 -129 53t-53 130z" />
<glyph unicode="&#xa9;" horiz-adv-x="1593" d="M90 684q0 149 55 275q56 129 152 225q95 95 225 151t275 56q146 0 275 -56t224 -151q96 -96 152 -225q55 -126 55 -275q0 -146 -55 -274q-56 -130 -152 -226q-95 -95 -224 -151t-275 -56q-145 0 -275 56t-225 151q-96 96 -152 226q-55 128 -55 274zM176 684 q0 -128 49 -241t133 -197q83 -83 198 -133t241 -50q127 0 241 50t197 133q84 84 133 197t49 241q0 131 -49 242q-50 112 -133 196q-83 83 -197 133t-241 50q-126 0 -241 -50t-198 -133q-84 -84 -133 -196q-49 -111 -49 -242zM387 686q0 95 34 172t91 134q56 56 135 88 t166 32q94 0 175 -38q79 -37 132 -101l-76 -76q-42 54 -100 86q-60 33 -131 33q-64 0 -123 -25q-56 -24 -99 -68t-67 -105q-24 -60 -24 -132t24 -133t67 -106q42 -43 99 -69q58 -26 123 -26q74 0 133 34q61 35 101 87l77 -74q-54 -64 -135 -104q-79 -39 -176 -39 q-87 0 -166 32q-77 31 -135 89q-56 57 -91 136q-34 78 -34 173z" />
<glyph unicode="&#xaa;" horiz-adv-x="802" d="M41 862q0 57 20 94q22 40 53 64q32 24 71 36q37 11 79 11q84 0 132 -24q50 -25 65 -44v50q0 36 -29 62t-88 26q-43 0 -91 -20q-46 -19 -85 -54l-90 168q69 52 154 74t159 22q61 0 121 -12q57 -11 105 -44q47 -31 75 -87q29 -56 29 -142v-374h-260v59q-16 -21 -65 -49 q-48 -27 -132 -27q-35 0 -79 13q-41 12 -71 38q-32 28 -53 66q-20 37 -20 94zM297 862q0 -35 26 -44q25 -9 52 -9q26 0 50 10q25 10 36 29v31q-10 15 -36 26q-24 10 -50 10q-28 0 -52 -10q-26 -11 -26 -43z" />
<glyph unicode="&#xab;" horiz-adv-x="1259" d="M61 498l328 362h328l-328 -362l328 -369h-328zM543 498l327 362h328l-328 -362l328 -369h-328z" />
<glyph unicode="&#xac;" horiz-adv-x="1079" d="M59 764v215h926v-590h-221v375h-705z" />
<glyph unicode="&#xad;" horiz-adv-x="614" d="M61 342v307h492v-307h-492z" />
<glyph unicode="&#xae;" horiz-adv-x="1011" d="M72 952q0 94 33 170q36 82 94 139q59 58 138 92q76 33 169 33q94 0 170 -33q81 -35 138 -92q56 -56 92 -139q34 -78 34 -170q0 -91 -34 -169q-34 -79 -92 -138q-56 -57 -138 -93q-78 -34 -170 -34q-91 0 -169 34q-79 34 -138 93q-60 60 -94 138q-33 76 -33 169zM143 952 q0 -73 29 -140t78 -116q50 -50 115 -78t141 -28t141 28t115 78q49 49 78 116q28 65 28 140q0 78 -28 143t-78 115q-51 51 -115 77q-68 28 -141 28t-141 -28q-64 -26 -115 -77q-50 -50 -78 -115q-29 -67 -29 -143zM338 702v498h203q62 0 115 -41t53 -110q0 -40 -16 -70 q-14 -26 -37 -46q-19 -17 -43 -25q-20 -7 -31 -7l133 -199h-92l-129 197h-80v-197h-76zM414 965h127q33 0 61 22q29 23 29 62q0 40 -29 64t-61 24h-127v-172z" />
<glyph unicode="&#xaf;" horiz-adv-x="743" d="M0 1210v199h743v-199h-743z" />
<glyph unicode="&#xb0;" horiz-adv-x="677" d="M35 1081q0 66 23 119q24 55 65 96q43 43 96 66q55 24 119 24t119 -24q53 -23 96 -66q41 -41 65 -96q25 -58 25 -119q0 -60 -25 -118q-24 -56 -65 -97q-40 -40 -96 -64q-55 -24 -119 -24t-119 24q-56 24 -96 64q-41 41 -65 97q-23 53 -23 118zM221 1081q0 -49 34 -83 q33 -33 83 -33q51 0 85 33q36 34 36 83t-36 85t-85 36q-48 0 -83 -36q-34 -35 -34 -85z" />
<glyph unicode="&#xb1;" horiz-adv-x="1044" d="M59 0v215h926v-215h-926zM59 672v215h344v379h238v-379h344v-215h-344v-396h-238v396h-344z" />
<glyph unicode="&#xb2;" horiz-adv-x="833" d="M45 1554q78 80 175 109q102 31 183 31q171 0 270 -73q97 -72 97 -196q0 -39 -13 -75q-14 -40 -47 -78q-41 -48 -90 -88q-68 -56 -145 -109h303v-213h-692v195l230 163q85 62 124 95q44 37 51 52q9 18 9 36q0 35 -26 56q-27 22 -77 22q-28 0 -65 -10q-38 -10 -62 -23 q-31 -16 -52 -32q-22 -17 -38 -34z" />
<glyph unicode="&#xb3;" horiz-adv-x="833" d="M47 975l127 178q52 -50 120 -72q63 -20 109 -20q59 0 86 15t27 38q0 42 -40 49q-43 8 -109 8h-60q-27 0 -41 -2v209q20 -2 45 -2h54q77 0 107 12t30 42q0 27 -32 39t-85 12q-52 0 -109 -20q-55 -19 -100 -60l-119 158q56 58 145 97q88 38 214 38q182 0 268 -65t86 -163 q0 -63 -49 -115t-133 -67q38 -5 69 -17q35 -14 64 -38q27 -23 46 -59q17 -33 17 -76q0 -58 -26 -101q-28 -46 -76 -77q-51 -33 -118 -50q-69 -18 -150 -18q-127 0 -220 36q-96 37 -147 91z" />
<glyph unicode="&#xb4;" horiz-adv-x="563" d="M0 1139l246 295h317l-317 -295h-246z" />
<glyph unicode="&#xb5;" horiz-adv-x="1241" d="M102 -377v1366h369v-549q0 -75 38 -107t105 -32q61 0 98 26q36 25 58 52v610h369v-989h-369v111q-40 -44 -114 -86q-76 -43 -185 -50v-352h-369z" />
<glyph unicode="&#xb6;" horiz-adv-x="919" d="M55 1014q0 72 28 137q27 63 76 112q48 48 111 75q65 28 138 28h466v-1571h-163v1407h-140v-1407h-163v867q-75 0 -138 27q-61 26 -111 76q-49 49 -76 112q-28 65 -28 137z" />
<glyph unicode="&#xb7;" horiz-adv-x="579" d="M72 500q0 47 17 85q18 40 47 69q28 28 69 47q39 18 84 18t84 -18t68 -47t47 -69q18 -41 18 -85q0 -42 -18 -83t-47 -70t-68 -47q-37 -17 -84 -17t-84 17q-41 19 -69 47q-29 29 -47 70q-17 38 -17 83z" />
<glyph unicode="&#xb8;" horiz-adv-x="485" d="M0 -340l63 131q41 -29 84 -45q42 -16 86 -16q35 0 60 11q26 12 26 38q0 35 -43 35q-31 0 -53 -25l-121 70l62 164h164l-52 -119q30 18 70 18q55 0 97 -42t42 -107q0 -89 -71 -135q-74 -48 -170 -48q-83 0 -146 21q-65 22 -98 49z" />
<glyph unicode="&#xb9;" horiz-adv-x="688" d="M0 1358l334 323h231v-819h-270v477l-143 -141z" />
<glyph unicode="&#xba;" horiz-adv-x="829" d="M41 989q0 67 26 128q27 63 73 108q49 47 117 74q72 28 157 28t158 -28q71 -27 118 -74t73 -108q25 -59 25 -128t-25 -128t-73 -107t-118 -75q-73 -28 -158 -28t-157 28q-66 26 -117 75q-47 45 -73 107q-26 61 -26 128zM309 989q0 -68 28 -101q27 -32 77 -32q51 0 80 32 q28 31 28 101q0 71 -28 100t-80 29q-51 0 -77 -29q-28 -31 -28 -100z" />
<glyph unicode="&#xbb;" horiz-adv-x="1259" d="M61 129l328 369l-328 362h328l328 -362l-328 -369h-328zM543 129l327 369l-327 362h327l328 -362l-328 -369h-327z" />
<glyph unicode="&#xbc;" horiz-adv-x="1837" d="M0 1042l334 324h231v-819h-270v477l-143 -141zM344 0l873 1366h200l-874 -1366h-199zM1042 145v179l293 495h379v-465h96v-209h-96v-145h-268v145h-404zM1307 354h139v242z" />
<glyph unicode="&#xbd;" horiz-adv-x="1898" d="M0 1042l334 324h231v-819h-270v477l-143 -141zM344 0l873 1366h200l-874 -1366h-199zM1110 692q78 80 175 109q99 30 183 30q172 0 270 -72q97 -72 97 -196q0 -40 -13 -76q-14 -38 -47 -77q-38 -45 -91 -88q-74 -60 -144 -109h303v-213h-692v195l230 162q77 56 124 96 q42 36 50 52q10 20 10 36q0 35 -26 56q-25 21 -77 21q-32 0 -65 -9q-38 -10 -62 -23q-31 -16 -52 -32q-22 -17 -38 -34z" />
<glyph unicode="&#xbe;" horiz-adv-x="1974" d="M47 659l127 179q52 -50 120 -72q66 -21 109 -21q57 0 86 16q27 15 27 38q0 42 -40 49q-43 8 -109 8h-60q-27 0 -41 -2v209q20 -2 45 -2h54q79 0 107 11q30 12 30 42q0 28 -32 40q-29 11 -85 11q-55 0 -109 -19q-53 -19 -100 -61l-119 158q56 58 145 97q88 38 214 38 q183 0 268 -64q86 -65 86 -163q0 -64 -49 -116q-48 -51 -133 -66q34 -5 69 -18q35 -14 64 -38q28 -24 46 -58q17 -33 17 -77q0 -57 -26 -100q-28 -46 -76 -77q-51 -33 -118 -50q-73 -19 -150 -19q-127 0 -220 36q-96 37 -147 91zM481 0l873 1366h200l-874 -1366h-199z M1180 145v179l293 495h378v-465h97v-209h-97v-145h-268v145h-403zM1444 354h139v242z" />
<glyph unicode="&#xbf;" horiz-adv-x="821" d="M16 -68q0 69 22 124q21 52 54 90q37 42 70 67l69 54q36 28 55 52q21 27 21 62q0 28 -7 46q-8 19 -15 30l323 73q26 -37 40 -84q16 -53 16 -110q0 -84 -36 -136q-35 -51 -79 -86q-45 -36 -79 -57q-36 -23 -36 -47q0 -18 17 -30q18 -13 63 -13q39 0 90 23q49 22 88 63 l230 -264q-90 -96 -212 -141t-243 -45q-209 0 -330 88t-121 241zM236 795q0 47 17 85q18 40 47 69t70 47t85 18q45 0 85 -18t69 -47t47 -69t18 -85t-18 -85q-18 -41 -47 -70t-69 -47t-85 -18t-85 18q-41 18 -70 47t-47 70q-17 38 -17 85z" />
<glyph unicode="&#xc0;" horiz-adv-x="1454" d="M-37 0l504 1366h520l504 -1366h-469l-49 160h-492l-49 -160h-469zM367 1786h317l246 -295h-246zM592 520h270l-135 441z" />
<glyph unicode="&#xc1;" horiz-adv-x="1454" d="M-37 0l504 1366h520l504 -1366h-469l-49 160h-492l-49 -160h-469zM530 1491l246 295h318l-318 -295h-246zM592 520h270l-135 441z" />
<glyph unicode="&#xc2;" horiz-adv-x="1454" d="M-37 0l504 1366h520l504 -1366h-469l-49 160h-492l-49 -160h-469zM387 1491l180 295h320l186 -295h-215l-131 149l-125 -149h-215zM592 520h270l-135 441z" />
<glyph unicode="&#xc3;" horiz-adv-x="1454" d="M-37 0l504 1366h520l504 -1366h-469l-49 160h-492l-49 -160h-469zM379 1499q0 143 61 208q62 67 181 67q44 0 80 -14q40 -16 59 -30l45 -31q20 -13 41 -13q20 0 35 18q14 17 14 57h182q0 -143 -61 -208q-62 -66 -180 -66q-48 0 -81 13q-37 14 -59 31l-45 31 q-20 13 -41 13q-19 0 -35 -19q-14 -17 -14 -57h-182zM592 520h270l-135 441z" />
<glyph unicode="&#xc4;" horiz-adv-x="1454" d="M-37 0l504 1366h520l504 -1366h-469l-49 160h-492l-49 -160h-469zM324 1628q0 78 52 130t130 52t130 -52t52 -130t-52 -130t-130 -52t-130 52t-52 130zM592 520h270l-135 441zM766 1628q0 77 53 130q52 52 129 52q79 0 131 -52q54 -54 54 -130t-54 -130q-52 -52 -131 -52 q-77 0 -129 52q-53 53 -53 130z" />
<glyph unicode="&#xc5;" horiz-adv-x="1454" d="M-37 0l504 1366h520l504 -1366h-469l-49 160h-492l-49 -160h-469zM500 1649q0 47 18 89q17 40 49 72q33 33 73 50q42 18 89 18t88 -18q40 -18 72 -50q30 -30 48 -72q17 -40 17 -89t-17 -89q-19 -44 -48 -73q-31 -31 -72 -49q-43 -19 -88 -19t-89 19q-42 18 -73 49t-49 73 t-18 89zM592 520h270l-135 441zM657 1649q0 -29 22 -51q21 -21 50 -21q28 0 49 21t21 51q0 29 -21 50t-49 21q-29 0 -50 -21q-22 -22 -22 -50z" />
<glyph unicode="&#xc6;" horiz-adv-x="2025" d="M-51 0l809 1366h1206v-360h-623v-136h609v-360h-609v-150h623v-360h-1036v160h-424l-84 -160h-471zM696 520h232v441z" />
<glyph unicode="&#xc7;" horiz-adv-x="1427" d="M37 682q0 158 57 288q56 129 158 223q101 93 238 144q141 52 298 52q135 0 237 -36t177 -92q78 -58 126 -128q52 -76 81 -142l-356 -166q-11 37 -38 76q-24 35 -61 64q-34 27 -77 43q-42 16 -89 16q-74 0 -135 -27q-64 -28 -105 -72q-45 -48 -68 -109q-23 -60 -23 -134 t23 -134q23 -61 68 -109q41 -44 105 -72q61 -27 135 -27q47 0 89 16q43 16 77 43q37 29 61 63q26 37 38 77l356 -164q-26 -61 -76 -133q-45 -65 -116 -124q-66 -55 -164 -95q-97 -40 -217 -46l-27 -65q30 18 70 18q55 0 97 -42t42 -107q0 -89 -72 -135q-73 -47 -170 -47 q-85 0 -145 20q-67 22 -99 49l64 131q40 -29 84 -45q42 -16 86 -16q34 0 59 11q27 12 27 38q0 35 -43 35q-31 0 -53 -25l-121 70l43 117q-140 17 -257 73q-116 56 -203 149q-85 91 -133 212q-48 122 -48 264z" />
<glyph unicode="&#xc8;" horiz-adv-x="1220" d="M111 0v1366h1036v-360h-623v-136h609v-360h-609v-150h623v-360h-1036zM268 1786h318l245 -295h-245z" />
<glyph unicode="&#xc9;" horiz-adv-x="1220" d="M111 0v1366h1036v-360h-623v-136h609v-360h-609v-150h623v-360h-1036zM430 1491l246 295h317l-317 -295h-246z" />
<glyph unicode="&#xca;" horiz-adv-x="1220" d="M111 0v1366h1036v-360h-623v-136h609v-360h-609v-150h623v-360h-1036zM287 1491l180 295h319l187 -295h-215l-131 149l-125 -149h-215z" />
<glyph unicode="&#xcb;" horiz-adv-x="1220" d="M111 0v1366h1036v-360h-623v-136h609v-360h-609v-150h623v-360h-1036zM231 1628q0 77 53 130q52 52 130 52t130 -52t52 -130t-52 -130t-130 -52t-130 52q-53 53 -53 130zM674 1628q0 77 53 130q52 52 129 52q79 0 131 -52q53 -53 53 -130t-53 -130q-52 -52 -131 -52 q-77 0 -129 52q-53 53 -53 130z" />
<glyph unicode="&#xcc;" horiz-adv-x="634" d="M-49 1786h317l246 -295h-246zM111 0v1366h413v-1366h-413z" />
<glyph unicode="&#xcd;" horiz-adv-x="634" d="M111 0v1366h413v-1366h-413zM125 1491l246 295h317l-317 -295h-246z" />
<glyph unicode="&#xce;" horiz-adv-x="634" d="M-29 1491l181 295h319l186 -295h-215l-131 149l-125 -149h-215zM111 0v1366h413v-1366h-413z" />
<glyph unicode="&#xcf;" horiz-adv-x="634" d="M-86 1626q0 78 52 130t130 52t130 -52q53 -53 53 -130t-53 -130q-52 -52 -130 -52t-130 52t-52 130zM111 0v1366h413v-1366h-413zM356 1626q0 76 54 130q52 52 129 52q79 0 131 -52q53 -53 53 -130t-53 -130q-52 -52 -131 -52q-77 0 -129 52q-54 54 -54 130z" />
<glyph unicode="&#xd0;" horiz-adv-x="1550" d="M14 520v326h140v520h610q162 0 299 -45t237 -132t157 -214q56 -125 56 -291t-56 -291q-57 -127 -157 -215t-237 -133t-297 -45h-612v520h-140zM567 360h197q78 0 139 27q62 27 104 71q41 43 64 102q23 60 23 124q0 70 -21 128q-21 59 -60 101q-41 45 -103 68 q-66 25 -144 25h-199v-160h264v-326h-264v-160z" />
<glyph unicode="&#xd1;" horiz-adv-x="1536" d="M111 0v1366h426l475 -647v647h413v-1366h-397l-504 692v-692h-413zM416 1499q0 143 61 208q62 67 180 67q45 0 81 -14q40 -16 59 -30l45 -31q20 -13 41 -13q20 0 35 18q14 17 14 57h182q0 -143 -61 -208q-62 -66 -181 -66q-47 0 -80 13q-37 14 -59 31l-45 31 q-20 13 -41 13q-19 0 -35 -19q-14 -17 -14 -57h-182z" />
<glyph unicode="&#xd2;" horiz-adv-x="1568" d="M37 682q0 158 57 288q56 129 158 223q100 93 237 144q139 52 295 52t295 -52q138 -52 238 -144q102 -94 158 -223q57 -130 57 -288t-57 -288q-56 -129 -158 -223q-100 -92 -238 -144q-139 -52 -295 -52t-295 52q-137 51 -237 144q-102 94 -158 223q-57 130 -57 288z M426 1786h317l246 -295h-246zM457 682q0 -74 23 -134q24 -63 67 -109q41 -44 103 -72q60 -27 134 -27q75 0 135 27q62 28 103 72q43 46 67 109q23 60 23 134t-23 134q-24 63 -67 109q-41 44 -103 72q-60 27 -135 27q-74 0 -134 -27q-62 -28 -103 -72q-43 -46 -67 -109 q-23 -60 -23 -134z" />
<glyph unicode="&#xd3;" horiz-adv-x="1568" d="M37 682q0 158 57 288q56 129 158 223q100 93 237 144q139 52 295 52t295 -52q138 -52 238 -144q102 -94 158 -223q57 -130 57 -288t-57 -288q-56 -129 -158 -223q-100 -92 -238 -144q-139 -52 -295 -52t-295 52q-137 51 -237 144q-102 94 -158 223q-57 130 -57 288z M457 682q0 -74 23 -134q24 -63 67 -109q41 -44 103 -72q60 -27 134 -27q75 0 135 27q62 28 103 72q43 46 67 109q23 60 23 134t-23 134q-24 63 -67 109q-41 44 -103 72q-60 27 -135 27q-74 0 -134 -27q-62 -28 -103 -72q-43 -46 -67 -109q-23 -60 -23 -134zM588 1491 l246 295h317l-317 -295h-246z" />
<glyph unicode="&#xd4;" horiz-adv-x="1568" d="M37 682q0 158 57 288q56 129 158 223q100 93 237 144q139 52 295 52t295 -52q138 -52 238 -144q102 -94 158 -223q57 -130 57 -288t-57 -288q-56 -129 -158 -223q-100 -92 -238 -144q-139 -52 -295 -52t-295 52q-137 51 -237 144q-102 94 -158 223q-57 130 -57 288z M449 1491l180 295h319l187 -295h-215l-132 149l-124 -149h-215zM457 682q0 -74 23 -134q24 -63 67 -109q41 -44 103 -72q60 -27 134 -27q75 0 135 27q62 28 103 72q43 46 67 109q23 60 23 134t-23 134q-24 63 -67 109q-41 44 -103 72q-60 27 -135 27q-74 0 -134 -27 q-62 -28 -103 -72q-43 -46 -67 -109q-23 -60 -23 -134z" />
<glyph unicode="&#xd5;" horiz-adv-x="1568" d="M37 682q0 158 57 288q56 129 158 223q100 93 237 144q139 52 295 52t295 -52q138 -52 238 -144q102 -94 158 -223q57 -130 57 -288t-57 -288q-56 -129 -158 -223q-100 -92 -238 -144q-139 -52 -295 -52t-295 52q-137 51 -237 144q-102 94 -158 223q-57 130 -57 288z M436 1499q0 141 62 208t180 67q45 0 81 -14q38 -15 58 -30l45 -31q20 -13 41 -13q20 0 35 18q14 17 14 57h183q0 -141 -62 -208q-61 -66 -180 -66q-48 0 -81 13q-35 14 -58 31l-45 31q-20 13 -41 13q-19 0 -35 -19q-15 -18 -15 -57h-182zM457 682q0 -74 23 -134 q24 -63 67 -109q41 -44 103 -72q60 -27 134 -27q75 0 135 27q62 28 103 72q43 46 67 109q23 60 23 134t-23 134q-24 63 -67 109q-41 44 -103 72q-60 27 -135 27q-74 0 -134 -27q-62 -28 -103 -72q-43 -46 -67 -109q-23 -60 -23 -134z" />
<glyph unicode="&#xd6;" horiz-adv-x="1568" d="M37 682q0 158 57 288q56 129 158 223q100 93 237 144q139 52 295 52t295 -52q138 -52 238 -144q102 -94 158 -223q57 -130 57 -288t-57 -288q-56 -129 -158 -223q-100 -92 -238 -144q-139 -52 -295 -52t-295 52q-137 51 -237 144q-102 94 -158 223q-57 130 -57 288z M387 1628q0 78 52 130t130 52t130 -52q53 -53 53 -130t-53 -130q-52 -52 -130 -52t-130 52t-52 130zM457 682q0 -74 23 -134q24 -63 67 -109q41 -44 103 -72q60 -27 134 -27q75 0 135 27q62 28 103 72q43 46 67 109q23 60 23 134t-23 134q-24 63 -67 109q-41 44 -103 72 q-60 27 -135 27q-74 0 -134 -27q-62 -28 -103 -72q-43 -46 -67 -109q-23 -60 -23 -134zM829 1628q0 76 54 130q52 52 129 52q79 0 131 -52q53 -53 53 -130t-53 -130q-52 -52 -131 -52q-77 0 -129 52q-54 54 -54 130z" />
<glyph unicode="&#xd7;" horiz-adv-x="1044" d="M96 410l275 274l-275 274l154 152l272 -274l275 274l151 -152l-272 -274l272 -274l-151 -152l-275 274l-272 -274z" />
<glyph unicode="&#xd8;" horiz-adv-x="1568" d="M37 0l178 209q-85 91 -132 211q-46 117 -46 262q0 158 57 288q56 129 158 223q100 93 237 144q139 52 295 52q96 0 192 -22q90 -21 173 -60l51 59h283l-156 -184q98 -93 151 -219q54 -127 54 -281q0 -158 -57 -288q-56 -129 -158 -223q-100 -92 -238 -144 q-139 -52 -295 -52q-225 0 -401 101l-64 -76h-282zM457 682q0 -86 30 -154l406 478q-49 18 -109 18q-74 0 -134 -27q-62 -28 -103 -72q-43 -46 -67 -109q-23 -60 -23 -134zM637 373q69 -33 147 -33q75 0 135 27q62 28 103 72q43 46 67 109q23 60 23 134q0 104 -51 188z" />
<glyph unicode="&#xd9;" horiz-adv-x="1570" d="M111 561v805h419v-791q0 -96 64 -166q63 -69 192 -69q128 0 191 69t63 166v791h420v-803q0 -126 -41 -235q-41 -108 -124 -187t-210 -122q-129 -44 -299 -44q-171 0 -300 44q-128 44 -211 122t-123 186q-41 109 -41 234zM428 1786h317l246 -295h-246z" />
<glyph unicode="&#xda;" horiz-adv-x="1570" d="M111 561v805h419v-791q0 -96 64 -166q63 -69 192 -69q128 0 191 69t63 166v791h420v-803q0 -126 -41 -235q-41 -108 -124 -187t-210 -122q-129 -44 -299 -44q-171 0 -300 44q-128 44 -211 122t-123 186q-41 109 -41 234zM592 1491l246 295h317l-317 -295h-246z" />
<glyph unicode="&#xdb;" horiz-adv-x="1570" d="M111 561v805h419v-791q0 -96 64 -166q63 -69 192 -69q128 0 191 69t63 166v791h420v-803q0 -126 -41 -235q-41 -108 -124 -187t-210 -122q-129 -44 -299 -44q-171 0 -300 44q-128 44 -211 122t-123 186q-41 109 -41 234zM459 1491l180 295h319l187 -295h-215l-131 149 l-125 -149h-215z" />
<glyph unicode="&#xdc;" horiz-adv-x="1570" d="M111 561v805h419v-791q0 -96 64 -166q63 -69 192 -69q128 0 191 69t63 166v791h420v-803q0 -126 -41 -235q-41 -108 -124 -187t-210 -122q-129 -44 -299 -44q-171 0 -300 44q-128 44 -211 122t-123 186q-41 109 -41 234zM389 1628q0 78 52 130t130 52t130 -52 q53 -53 53 -130t-53 -130q-52 -52 -130 -52t-130 52t-52 130zM831 1628q0 76 54 130q52 52 129 52q79 0 131 -52q53 -53 53 -130t-53 -130q-52 -52 -131 -52q-77 0 -129 52q-54 54 -54 130z" />
<glyph unicode="&#xdd;" horiz-adv-x="1359" d="M-37 1366h465l254 -461l250 461h465l-508 -823v-543h-414v543zM485 1491l246 295h318l-318 -295h-246z" />
<glyph unicode="&#xde;" horiz-adv-x="1355" d="M111 0v1366h413v-197h316q121 0 211 -37q89 -36 154 -103q63 -64 94 -149q32 -87 32 -182q0 -94 -32 -181q-31 -84 -94 -147q-63 -62 -154 -100q-90 -37 -211 -37h-316v-233h-413zM524 594h262q54 0 90 27q35 26 35 79q0 55 -35 81q-37 28 -90 28h-262v-215z" />
<glyph unicode="&#xdf;" horiz-adv-x="1409" d="M104 0v924q0 92 36 176q35 82 106 147q72 66 171 102q101 37 234 37q95 0 180 -23q90 -24 156 -67q70 -45 109 -104q41 -62 41 -139q0 -88 -36 -145q-33 -53 -80 -93q-27 -23 -80 -63q-36 -27 -36 -56q0 -18 36 -24l34 -6q34 -6 55 -9q55 -8 115 -24q64 -17 115 -52 q52 -36 89 -100q35 -61 35 -166q0 -81 -33 -141q-35 -64 -94 -107q-62 -45 -140 -68q-81 -24 -175 -24q-139 0 -241 39q-97 37 -183 109l141 252q20 -23 53 -48q31 -23 70 -40q38 -16 80 -27q39 -10 80 -10q46 0 68 13t22 30q0 23 -36 33q-10 3 -89 21q-65 15 -114 28 q-64 17 -115 52q-54 37 -89 95q-36 60 -36 158q0 75 32 128t70 87q32 28 71 58q32 24 32 42q0 36 -34 51t-81 15q-77 0 -123 -36q-47 -36 -47 -101v-924h-369z" />
<glyph unicode="&#xe0;" horiz-adv-x="1144" d="M35 301q0 93 33 153t82 97q47 35 109 51q56 14 116 14q100 0 178 -28q80 -29 121 -80v102q0 54 -46 88q-47 35 -139 35q-71 0 -142 -25t-132 -71l-125 227q103 81 227 115q129 35 240 35q87 0 179 -19q86 -18 156 -65q68 -46 109 -128t41 -204v-598h-368v94 q-41 -53 -124 -86q-82 -33 -175 -33q-54 0 -116 20q-61 20 -109 59q-49 40 -82 102t-33 145zM197 1434h317l246 -295h-246zM399 295q0 -23 12 -38q14 -17 29 -25q16 -8 42 -13q21 -4 46 -4q45 0 85 13q44 14 61 40v56q-17 26 -61 40q-40 13 -85 13t-88 -19q-41 -18 -41 -63z " />
<glyph unicode="&#xe1;" horiz-adv-x="1144" d="M35 301q0 93 33 153t82 97q47 35 109 51q56 14 116 14q100 0 178 -28q80 -29 121 -80v102q0 54 -46 88q-47 35 -139 35q-71 0 -142 -25t-132 -71l-125 227q103 81 227 115q129 35 240 35q87 0 179 -19q86 -18 156 -65q68 -46 109 -128t41 -204v-598h-368v94 q-41 -53 -124 -86q-82 -33 -175 -33q-54 0 -116 20q-61 20 -109 59q-49 40 -82 102t-33 145zM375 1139l246 295h317l-317 -295h-246zM399 295q0 -23 12 -38q14 -17 29 -25q16 -8 42 -13q21 -4 46 -4q45 0 85 13q44 14 61 40v56q-17 26 -61 40q-40 13 -85 13t-88 -19 q-41 -18 -41 -63z" />
<glyph unicode="&#xe2;" horiz-adv-x="1144" d="M35 301q0 93 33 153t82 97q47 35 109 51q56 14 116 14q100 0 178 -28q80 -29 121 -80v102q0 54 -46 88q-47 35 -139 35q-71 0 -142 -25t-132 -71l-125 227q103 81 227 115q129 35 240 35q87 0 179 -19q86 -18 156 -65q68 -46 109 -128t41 -204v-598h-368v94 q-41 -53 -124 -86q-82 -33 -175 -33q-54 0 -116 20q-61 20 -109 59q-49 40 -82 102t-33 145zM227 1139l181 295h319l186 -295h-215l-131 149l-125 -149h-215zM399 295q0 -23 12 -38q14 -17 29 -25q16 -8 42 -13q21 -4 46 -4q45 0 85 13q44 14 61 40v56q-17 26 -61 40 q-40 13 -85 13t-88 -19q-41 -18 -41 -63z" />
<glyph unicode="&#xe3;" horiz-adv-x="1144" d="M35 301q0 93 33 153t82 97q47 35 109 51q56 14 116 14q100 0 178 -28q80 -29 121 -80v102q0 54 -46 88q-47 35 -139 35q-71 0 -142 -25t-132 -71l-125 227q103 81 227 115q129 35 240 35q87 0 179 -19q86 -18 156 -65q68 -46 109 -128t41 -204v-598h-368v94 q-41 -53 -124 -86q-82 -33 -175 -33q-54 0 -116 20q-61 20 -109 59q-49 40 -82 102t-33 145zM215 1147q0 143 61 208q62 66 181 66q48 0 81 -13q35 -14 58 -31l45 -30q22 -14 41 -14t35 19q14 17 14 57h182q0 -143 -61 -208q-62 -66 -180 -66q-48 0 -81 13q-37 14 -59 31 l-45 30q-22 14 -41 14q-18 0 -34 -19q-15 -18 -15 -57h-182zM399 295q0 -23 12 -38q14 -17 29 -25q16 -8 42 -13q21 -4 46 -4q45 0 85 13q44 14 61 40v56q-17 26 -61 40q-40 13 -85 13t-88 -19q-41 -18 -41 -63z" />
<glyph unicode="&#xe4;" horiz-adv-x="1144" d="M35 301q0 93 33 153t82 97q47 35 109 51q56 14 116 14q100 0 178 -28q80 -29 121 -80v102q0 54 -46 88q-47 35 -139 35q-71 0 -142 -25t-132 -71l-125 227q103 81 227 115q129 35 240 35q87 0 179 -19q86 -18 156 -65q68 -46 109 -128t41 -204v-598h-368v94 q-41 -53 -124 -86q-82 -33 -175 -33q-54 0 -116 20q-61 20 -109 59q-49 40 -82 102t-33 145zM156 1266q0 78 52 130t130 52t130 -52t52 -130t-52 -130q-53 -53 -130 -53t-130 53q-52 52 -52 130zM399 295q0 -23 12 -38q14 -17 29 -25q16 -8 42 -13q21 -4 46 -4q45 0 85 13 q44 14 61 40v56q-17 26 -61 40q-40 13 -85 13t-88 -19q-41 -18 -41 -63zM598 1266q0 77 53 130q52 52 129 52q79 0 131 -52q54 -54 54 -130t-54 -130q-53 -53 -131 -53q-76 0 -129 53t-53 130z" />
<glyph unicode="&#xe5;" horiz-adv-x="1144" d="M35 301q0 93 33 153t82 97q47 35 109 51q56 14 116 14q100 0 178 -28q80 -29 121 -80v102q0 54 -46 88q-47 35 -139 35q-71 0 -142 -25t-132 -71l-125 227q103 81 227 115q129 35 240 35q87 0 179 -19q86 -18 156 -65q68 -46 109 -128t41 -204v-598h-368v94 q-41 -53 -124 -86q-82 -33 -175 -33q-54 0 -116 20q-61 20 -109 59q-49 40 -82 102t-33 145zM338 1323q0 47 18 89q17 40 50 73q32 32 72 49q42 18 89 18t88 -18t72 -49q29 -29 48 -73q18 -42 18 -89t-18 -89q-19 -44 -48 -73q-31 -31 -72 -49t-88 -18t-89 18q-40 17 -72 49 q-33 33 -50 73q-18 42 -18 89zM399 295q0 -23 12 -38q14 -17 29 -25q16 -8 42 -13q21 -4 46 -4q45 0 85 13q44 14 61 40v56q-17 26 -61 40q-40 13 -85 13t-88 -19q-41 -18 -41 -63zM496 1323q0 -29 21 -50q22 -22 50 -22q27 0 49 22q21 21 21 50t-21 50q-22 22 -49 22 q-28 0 -50 -22q-21 -21 -21 -50z" />
<glyph unicode="&#xe6;" horiz-adv-x="1742" d="M35 295q0 81 27 143q26 60 75 101q45 38 109 58q60 19 129 19q91 0 174 -27q80 -26 125 -79v100q0 52 -46 86q-47 35 -139 35q-70 0 -142 -24q-69 -23 -132 -72l-125 229q103 81 227 115q129 35 240 35q121 0 201 -27q78 -26 139 -80q56 50 127 78q73 29 201 29 q99 0 190 -38q90 -38 158 -110q67 -71 106 -175q39 -103 39 -234v-76h-671q23 -44 72 -79q53 -38 151 -38q56 0 114 20q57 19 95 50l159 -236q-38 -30 -87 -54t-105 -39q-52 -14 -115 -22q-64 -8 -114 -8q-115 0 -226 39q-110 39 -182 115q-71 -71 -177 -112 q-108 -42 -224 -42q-65 0 -135 19q-67 18 -119 57t-86 100q-33 60 -33 144zM399 295q0 -23 12 -38q14 -17 29 -25q16 -8 42 -13q21 -4 46 -4q46 0 89 14q48 15 65 43q-4 7 -6 24q-2 20 -2 26q-16 24 -61 40q-42 15 -85 15q-45 0 -88 -19q-41 -18 -41 -63zM1042 614h326 q-5 18 -13 37t-28 39t-48 31q-30 12 -75 12q-40 0 -69 -12q-30 -13 -49 -30t-29 -38q-11 -21 -15 -39z" />
<glyph unicode="&#xe7;" horiz-adv-x="1028" d="M35 496q0 118 43 213q43 96 118 163q76 68 176 105q101 37 218 37q83 0 152 -18q72 -19 121 -44q54 -28 89 -60t58 -65l-238 -223q-24 37 -64 60q-42 24 -102 24q-78 0 -136 -48t-58 -144q0 -97 58 -146t136 -49q59 0 102 26q41 25 64 60l238 -225q-38 -56 -123 -111 q-83 -54 -223 -71l-31 -72q30 18 69 18q56 0 98 -42t42 -107q0 -89 -72 -135q-74 -48 -170 -48q-82 0 -145 21q-67 22 -99 49l64 131q40 -29 84 -45q42 -16 86 -16q34 0 59 11q27 12 27 38q0 35 -43 35q-31 0 -53 -25l-121 70l43 119q-103 12 -188 54q-84 41 -147 107 q-62 65 -97 155t-35 198z" />
<glyph unicode="&#xe8;" horiz-adv-x="1112" d="M35 496q0 106 39 201q41 99 110 165q75 72 170 111q100 41 219 41q107 0 203 -38q93 -37 163 -110q68 -71 109 -175q39 -100 39 -234v-76h-671q17 -48 68 -86q53 -39 145 -39q17 0 52 5q27 4 64 14q25 7 63 22q29 12 48 29l152 -228q-38 -30 -87 -54q-48 -23 -106 -39 q-52 -14 -115 -22q-64 -8 -114 -8q-116 0 -217 36q-99 35 -174 103q-73 66 -117 162q-43 95 -43 220zM209 1434h317l246 -295h-246zM412 614h325q-5 18 -13 37t-28 39t-48 31q-30 12 -75 12q-43 0 -71 -12t-47 -31t-29 -39q-9 -17 -14 -37z" />
<glyph unicode="&#xe9;" horiz-adv-x="1112" d="M35 496q0 106 39 201q41 99 110 165q75 72 170 111q100 41 219 41q107 0 203 -38q93 -37 163 -110q68 -71 109 -175q39 -100 39 -234v-76h-671q17 -48 68 -86q53 -39 145 -39q17 0 52 5q27 4 64 14q25 7 63 22q29 12 48 29l152 -228q-38 -30 -87 -54q-48 -23 -106 -39 q-52 -14 -115 -22q-64 -8 -114 -8q-116 0 -217 36q-99 35 -174 103q-73 66 -117 162q-43 95 -43 220zM379 1139l246 295h317l-317 -295h-246zM412 614h325q-5 18 -13 37t-28 39t-48 31q-30 12 -75 12q-43 0 -71 -12t-47 -31t-29 -39q-9 -17 -14 -37z" />
<glyph unicode="&#xea;" horiz-adv-x="1112" d="M35 496q0 106 39 201q41 99 110 165q75 72 170 111q100 41 219 41q107 0 203 -38q93 -37 163 -110q68 -71 109 -175q39 -100 39 -234v-76h-671q17 -48 68 -86q53 -39 145 -39q17 0 52 5q27 4 64 14q25 7 63 22q29 12 48 29l152 -228q-38 -30 -87 -54q-48 -23 -106 -39 q-52 -14 -115 -22q-64 -8 -114 -8q-116 0 -217 36q-99 35 -174 103q-73 66 -117 162q-43 95 -43 220zM231 1139l181 295h319l187 -295h-216l-131 149l-125 -149h-215zM412 614h325q-5 18 -13 37t-28 39t-48 31q-30 12 -75 12q-43 0 -71 -12t-47 -31t-29 -39q-9 -17 -14 -37z " />
<glyph unicode="&#xeb;" horiz-adv-x="1112" d="M35 496q0 106 39 201q41 99 110 165q75 72 170 111q100 41 219 41q107 0 203 -38q93 -37 163 -110q68 -71 109 -175q39 -100 39 -234v-76h-671q17 -48 68 -86q53 -39 145 -39q17 0 52 5q27 4 64 14q25 7 63 22q29 12 48 29l152 -228q-38 -30 -87 -54q-48 -23 -106 -39 q-52 -14 -115 -22q-64 -8 -114 -8q-116 0 -217 36q-99 35 -174 103q-73 66 -117 162q-43 95 -43 220zM172 1266q0 78 52 130t130 52t130 -52q53 -53 53 -130t-53 -130t-130 -53t-130 53q-52 52 -52 130zM412 614h325q-5 18 -13 37t-28 39t-48 31q-30 12 -75 12 q-43 0 -71 -12t-47 -31t-29 -39q-9 -17 -14 -37zM614 1266q0 76 54 130q52 52 129 52q79 0 131 -52q53 -53 53 -130t-53 -130t-131 -53q-76 0 -129 53q-54 54 -54 130z" />
<glyph unicode="&#xec;" d="M-78 1434h318l245 -295h-245zM102 0v989h369v-989h-369z" />
<glyph unicode="&#xed;" d="M88 1139l246 295h317l-317 -295h-246zM102 0v989h369v-989h-369z" />
<glyph unicode="&#xee;" d="M-55 1139l180 295h319l187 -295h-215l-131 149l-125 -149h-215zM102 0v989h369v-989h-369z" />
<glyph unicode="&#xef;" d="M-117 1266q0 78 52 130t131 52q78 0 130 -52t52 -130t-52 -130q-53 -53 -130 -53q-78 0 -131 53q-52 52 -52 130zM102 0v989h369v-989h-369zM326 1266q0 77 53 130q52 52 129 52q79 0 131 -52q53 -53 53 -130t-53 -130t-131 -53q-76 0 -129 53t-53 130z" />
<glyph unicode="&#xf0;" horiz-adv-x="1181" d="M35 440q0 106 34 190q35 86 92 146q58 61 136 94t164 33q117 0 197 -52q83 -54 135 -144q-27 83 -115 167t-201 162l-305 -135l-66 160l199 86q-19 13 -49 30q-42 23 -47 27l197 293q66 -39 145 -92q62 -41 129 -92l203 88l67 -154l-125 -55q161 -152 241 -310 q81 -160 81 -354q0 -125 -38 -228q-37 -100 -109 -174t-175 -112q-105 -39 -235 -39q-126 0 -227 34q-107 36 -176 95q-71 61 -112 147q-40 84 -40 189zM414 440q0 -61 45 -100t131 -39t132 39t46 100q0 62 -46 101t-132 39t-131 -39t-45 -101z" />
<glyph unicode="&#xf1;" horiz-adv-x="1243" d="M123 0v989h369v-112q44 50 125 93q83 44 214 44q83 0 149 -25q61 -23 102 -66q40 -41 60 -100q19 -56 19 -121v-702h-368v547q0 77 -39 109q-40 32 -105 32q-64 0 -99 -25q-34 -24 -58 -53v-610h-369zM274 1147q0 141 62 208q62 66 180 66q48 0 81 -13q35 -14 58 -31 l45 -30q22 -14 41 -14t35 19q15 18 15 57h182q0 -141 -62 -208q-61 -66 -180 -66q-48 0 -81 13q-35 14 -58 31l-45 30q-22 14 -41 14t-35 -19q-14 -17 -14 -57h-183z" />
<glyph unicode="&#xf2;" horiz-adv-x="1181" d="M35 496q0 103 38 197q37 93 108 165t174 114t235 42q130 0 235 -42q104 -42 175 -114q72 -74 109 -165q38 -94 38 -197t-38 -199q-36 -92 -109 -166q-71 -72 -175 -114q-105 -42 -235 -42q-132 0 -235 42t-174 114t-108 166q-38 96 -38 199zM227 1434h318l246 -295h-246z M414 496q0 -84 45 -140q45 -55 131 -55t132 55t46 140q0 82 -46 137t-132 55t-131 -55t-45 -137z" />
<glyph unicode="&#xf3;" horiz-adv-x="1181" d="M35 496q0 103 38 197q37 93 108 165t174 114t235 42q130 0 235 -42q104 -42 175 -114q72 -74 109 -165q38 -94 38 -197t-38 -199q-36 -92 -109 -166q-71 -72 -175 -114q-105 -42 -235 -42q-132 0 -235 42t-174 114t-108 166q-38 96 -38 199zM391 1139l246 295h317 l-317 -295h-246zM414 496q0 -84 45 -140q45 -55 131 -55t132 55t46 140q0 82 -46 137t-132 55t-131 -55t-45 -137z" />
<glyph unicode="&#xf4;" horiz-adv-x="1181" d="M35 496q0 103 38 197q37 93 108 165t174 114t235 42q130 0 235 -42q104 -42 175 -114q72 -74 109 -165q38 -94 38 -197t-38 -199q-36 -92 -109 -166q-71 -72 -175 -114q-105 -42 -235 -42q-132 0 -235 42t-174 114t-108 166q-38 96 -38 199zM250 1139l180 295h320 l186 -295h-215l-131 149l-125 -149h-215zM414 496q0 -84 45 -140q45 -55 131 -55t132 55t46 140q0 82 -46 137t-132 55t-131 -55t-45 -137z" />
<glyph unicode="&#xf5;" horiz-adv-x="1181" d="M35 496q0 103 38 197q37 93 108 165t174 114t235 42q130 0 235 -42q104 -42 175 -114q72 -74 109 -165q38 -94 38 -197t-38 -199q-36 -92 -109 -166q-71 -72 -175 -114q-105 -42 -235 -42q-132 0 -235 42t-174 114t-108 166q-38 96 -38 199zM242 1147q0 143 61 208 q61 66 180 66q48 0 81 -13q37 -14 59 -31l45 -30q22 -14 41 -14q18 0 34 19q15 18 15 57h182q0 -143 -61 -208q-61 -66 -181 -66q-48 0 -81 13q-35 14 -58 31l-45 30q-22 14 -41 14t-35 -19q-14 -17 -14 -57h-182zM414 496q0 -84 45 -140q45 -55 131 -55t132 55t46 140 q0 82 -46 137t-132 55t-131 -55t-45 -137z" />
<glyph unicode="&#xf6;" horiz-adv-x="1181" d="M35 496q0 103 38 197q37 93 108 165t174 114t235 42q130 0 235 -42q104 -42 175 -114q72 -74 109 -165q38 -94 38 -197t-38 -199q-36 -92 -109 -166q-71 -72 -175 -114q-105 -42 -235 -42q-132 0 -235 42t-174 114t-108 166q-38 96 -38 199zM186 1266q0 77 53 130 q52 52 130 52t130 -52t52 -130t-52 -130q-53 -53 -130 -53t-130 53t-53 130zM414 496q0 -84 45 -140q45 -55 131 -55t132 55t46 140q0 82 -46 137t-132 55t-131 -55t-45 -137zM629 1266q0 77 53 130q52 52 129 52q79 0 131 -52q53 -53 53 -130t-53 -130t-131 -53 q-76 0 -129 53t-53 130z" />
<glyph unicode="&#xf7;" horiz-adv-x="1046" d="M59 584v215h928v-215h-928zM367 348q0 66 45 111t110 45q66 0 111 -45t45 -111q0 -65 -45 -110t-111 -45q-65 0 -110 45t-45 110zM367 1034q0 66 45 110q46 44 110 44q65 0 111 -44q45 -44 45 -110q0 -64 -45 -111q-45 -46 -111 -46q-65 0 -110 46q-45 47 -45 111z" />
<glyph unicode="&#xf8;" horiz-adv-x="1181" d="M35 0l131 145q-64 70 -98 162q-33 90 -33 189q0 103 38 197q37 93 108 165t174 114t235 42q84 0 163 -19q73 -17 136 -53l43 47h215l-133 -145q63 -69 99 -161q34 -87 34 -187q0 -103 -38 -199q-36 -92 -109 -166q-71 -72 -175 -114q-105 -42 -235 -42q-88 0 -165 20 q-74 19 -136 54l-45 -49h-209zM414 496q0 -39 8 -68l227 252q-26 8 -59 8q-86 0 -131 -55t-45 -137zM526 311q29 -10 64 -10q86 0 132 55t46 140q0 34 -10 67z" />
<glyph unicode="&#xf9;" horiz-adv-x="1241" d="M102 283v706h369v-549q0 -75 38 -107t105 -32q61 0 98 26q36 25 58 52v610h369v-989h-369v111q-25 -26 -53 -49q-27 -22 -73 -43q-39 -18 -95 -31q-57 -13 -119 -13q-82 0 -148 25q-60 23 -103 66q-40 40 -58 97q-19 60 -19 120zM260 1434h318l245 -295h-245z" />
<glyph unicode="&#xfa;" horiz-adv-x="1241" d="M102 283v706h369v-549q0 -75 38 -107t105 -32q61 0 98 26q36 25 58 52v610h369v-989h-369v111q-25 -26 -53 -49q-27 -22 -73 -43q-39 -18 -95 -31q-57 -13 -119 -13q-82 0 -148 25q-60 23 -103 66q-40 40 -58 97q-19 60 -19 120zM424 1139l246 295h317l-317 -295h-246z " />
<glyph unicode="&#xfb;" horiz-adv-x="1241" d="M102 283v706h369v-549q0 -75 38 -107t105 -32q61 0 98 26q36 25 58 52v610h369v-989h-369v111q-25 -26 -53 -49q-27 -22 -73 -43q-39 -18 -95 -31q-57 -13 -119 -13q-82 0 -148 25q-60 23 -103 66q-40 40 -58 97q-19 60 -19 120zM283 1139l180 295h319l187 -295h-215 l-131 149l-125 -149h-215z" />
<glyph unicode="&#xfc;" horiz-adv-x="1241" d="M102 283v706h369v-549q0 -75 38 -107t105 -32q61 0 98 26q36 25 58 52v610h369v-989h-369v111q-25 -26 -53 -49q-27 -22 -73 -43q-39 -18 -95 -31q-57 -13 -119 -13q-82 0 -148 25q-60 23 -103 66q-40 40 -58 97q-19 60 -19 120zM221 1266q0 78 52 130t130 52 q79 0 131 -52t52 -130t-52 -130q-53 -53 -131 -53q-77 0 -130 53q-52 52 -52 130zM664 1266q0 77 53 130q52 52 129 52q79 0 131 -52q53 -53 53 -130t-53 -130t-131 -53q-76 0 -129 53t-53 130z" />
<glyph unicode="&#xfd;" horiz-adv-x="1095" d="M-31 989h389l189 -565l190 565h389l-430 -1112q-33 -86 -80 -139q-49 -55 -105 -84q-58 -30 -128 -42q-66 -11 -147 -13q-17 0 -29 1t-40 3q-14 1 -42 5q-23 3 -33 7l51 328q16 -10 38 -15q19 -4 40 -4q111 0 129 39l8 21zM348 1139l246 295h317l-317 -295h-246z" />
<glyph unicode="&#xfe;" horiz-adv-x="1218" d="M102 -377v1743h369v-481q60 72 130 100q72 29 149 29q93 0 171 -34q80 -35 137 -99t92 -162q34 -95 34 -223q0 -129 -34 -225q-34 -97 -92 -162q-58 -66 -137 -100q-78 -34 -171 -34q-78 0 -148 29t-131 100v-481h-369zM471 369q26 -33 71 -50q46 -18 81 -18q73 0 129 50 q55 49 55 145q0 93 -55 142q-56 50 -129 50q-37 0 -80 -17q-46 -18 -72 -50v-252z" />
<glyph unicode="&#xff;" horiz-adv-x="1095" d="M-31 989h389l189 -565l190 565h389l-430 -1112q-33 -86 -80 -139q-49 -55 -105 -84q-58 -30 -128 -42q-66 -11 -147 -13q-17 0 -29 1t-40 3q-14 1 -42 5q-23 3 -33 7l51 328q16 -10 38 -15q19 -4 40 -4q111 0 129 39l8 21zM143 1266q0 77 53 130q52 52 130 52t130 -52 t52 -130t-52 -130q-53 -53 -130 -53t-130 53t-53 130zM586 1266q0 77 53 130q52 52 129 52q79 0 131 -52q53 -53 53 -130t-53 -130t-131 -53q-76 0 -129 53t-53 130z" />
<glyph unicode="&#x2c6;" horiz-adv-x="686" d="M0 1139l180 295h320l186 -295h-215l-131 149l-125 -149h-215z" />
<glyph unicode="&#x2dc;" horiz-adv-x="698" d="M0 1147q0 143 61 208q62 66 181 66q48 0 81 -13q35 -14 58 -31l45 -30q22 -14 41 -14t35 19q14 17 14 57h182q0 -143 -61 -208q-61 -66 -180 -66q-48 0 -81 13q-37 14 -59 31l-45 30q-22 14 -41 14q-18 0 -34 -19q-15 -18 -15 -57h-182z" />
<glyph unicode="&#x2000;" horiz-adv-x="939" />
<glyph unicode="&#x2001;" horiz-adv-x="1878" />
<glyph unicode="&#x2002;" horiz-adv-x="939" />
<glyph unicode="&#x2003;" horiz-adv-x="1878" />
<glyph unicode="&#x2004;" horiz-adv-x="626" />
<glyph unicode="&#x2005;" horiz-adv-x="469" />
<glyph unicode="&#x2006;" horiz-adv-x="313" />
<glyph unicode="&#x2007;" horiz-adv-x="313" />
<glyph unicode="&#x2008;" horiz-adv-x="234" />
<glyph unicode="&#x2009;" horiz-adv-x="375" />
<glyph unicode="&#x200a;" horiz-adv-x="104" />
<glyph unicode="&#x2010;" horiz-adv-x="614" d="M61 342v307h492v-307h-492z" />
<glyph unicode="&#x2011;" horiz-adv-x="614" d="M61 342v307h492v-307h-492z" />
<glyph unicode="&#x2012;" horiz-adv-x="614" d="M61 342v307h492v-307h-492z" />
<glyph unicode="&#x2013;" horiz-adv-x="1214" d="M61 342v307h1092v-307h-1092z" />
<glyph unicode="&#x2014;" horiz-adv-x="1705" d="M61 342v307h1584v-307h-1584z" />
<glyph unicode="&#x2018;" horiz-adv-x="575" d="M61 938q0 135 68 250q70 118 188 201l150 -121q-24 -10 -53 -32q-32 -23 -55 -48q-25 -26 -47 -58q-20 -28 -31 -59q22 8 53 8q74 0 126 -52t52 -138q0 -47 -17 -84q-18 -40 -46 -69q-27 -29 -68 -46q-38 -16 -82 -16q-49 0 -90 17q-45 19 -76 51q-33 34 -52 83 q-20 51 -20 113z" />
<glyph unicode="&#x2019;" horiz-adv-x="575" d="M70 1171q0 47 17 84q19 41 46 68t68 46q37 17 82 17q49 0 90 -17q45 -19 76 -51q33 -34 52 -83q19 -48 19 -113q0 -137 -67 -250q-68 -115 -189 -200l-149 121q27 12 53 31q28 21 54 48q25 26 47 58q22 31 32 59q-22 -8 -53 -8q-74 0 -126 52t-52 138z" />
<glyph unicode="&#x201a;" horiz-adv-x="575" d="M70 199q0 47 17 84q18 39 46 67q27 27 68 46q39 18 82 18q47 0 90 -18q45 -19 76 -51q33 -34 52 -83q19 -48 19 -112q0 -137 -67 -250q-69 -117 -189 -201l-149 121q24 10 53 32q28 21 54 48q27 29 47 57q22 31 32 59q-22 -8 -53 -8q-74 0 -126 52t-52 139z" />
<glyph unicode="&#x201c;" horiz-adv-x="1081" d="M53 938q0 135 68 250q70 118 188 201l150 -121q-24 -10 -53 -32q-32 -23 -55 -48q-25 -26 -47 -58q-22 -31 -32 -59q22 8 54 8q74 0 126 -52t52 -138q0 -45 -18 -84q-18 -40 -46 -69q-28 -30 -67 -46q-38 -16 -82 -16q-49 0 -90 17q-45 19 -76 51q-33 34 -52 83 q-20 51 -20 113zM559 938q0 135 68 250q70 118 188 201l150 -121q-26 -11 -54 -32q-29 -21 -54 -48q-27 -29 -47 -57q-21 -30 -32 -60q22 8 53 8q74 0 126 -52q53 -53 53 -138q0 -45 -18 -84q-18 -40 -46 -69q-28 -30 -67 -46q-38 -16 -82 -16q-49 0 -90 17q-45 19 -76 51 q-33 34 -52 83q-20 51 -20 113z" />
<glyph unicode="&#x201d;" horiz-adv-x="1081" d="M70 1171q0 47 17 84q19 41 46 68t68 46q37 17 82 17q49 0 90 -17q45 -19 76 -51q33 -34 52 -83q19 -48 19 -113q0 -137 -67 -250q-68 -115 -189 -200l-149 121q27 12 53 31q28 21 54 48q25 26 47 58q22 31 32 59q-22 -8 -53 -8q-74 0 -126 52t-52 138zM575 1171 q0 45 18 84q19 41 46 68t68 46q37 17 81 17q50 0 91 -17q43 -18 75 -51q35 -36 53 -83q19 -48 19 -113q0 -135 -68 -250q-69 -116 -188 -200l-149 121q27 12 53 31q28 21 54 48q25 26 47 58q22 31 32 59q-22 -8 -53 -8q-74 0 -126 52q-53 53 -53 138z" />
<glyph unicode="&#x201e;" horiz-adv-x="1081" d="M70 199q0 47 17 84q18 39 46 67q27 27 68 46q39 18 82 18q47 0 90 -18q45 -19 76 -51q33 -34 52 -83q19 -48 19 -112q0 -137 -67 -250q-69 -117 -189 -201l-149 121q24 10 53 32q28 21 54 48q27 29 47 57q22 31 32 59q-22 -8 -53 -8q-74 0 -126 52t-52 139zM575 199 q0 45 18 84t46 67q27 27 68 46q39 18 81 18q48 0 91 -18t75 -51q35 -36 53 -83q19 -48 19 -112q0 -135 -68 -250q-70 -118 -188 -201l-149 121q24 10 53 32q28 21 54 48q27 29 47 57q22 31 32 59q-22 -8 -53 -8q-74 0 -126 52q-53 53 -53 139z" />
<glyph unicode="&#x2022;" horiz-adv-x="733" d="M102 496q0 55 21 103q22 50 57 85t85 57q48 21 104 21q55 0 103 -21q50 -22 85 -57t57 -85q21 -48 21 -103q0 -56 -21 -104q-22 -50 -57 -84q-36 -35 -85 -56q-48 -21 -103 -21q-56 0 -104 21q-49 21 -85 56q-35 34 -57 84q-21 48 -21 104z" />
<glyph unicode="&#x2026;" horiz-adv-x="1732" d="M72 195q0 47 17 85q18 40 47 69q28 28 69 47q39 18 84 18t84 -18t68 -47t47 -69t18 -85q0 -43 -18 -83q-18 -41 -47 -70t-68 -47t-84 -18t-84 18q-41 19 -69 47q-29 29 -47 70q-17 38 -17 83zM649 195q0 45 18 85t47 69t68 47t84 18t84 -18q41 -19 69 -47q29 -29 47 -69 q17 -38 17 -85q0 -45 -17 -83q-18 -41 -47 -70q-28 -28 -69 -47q-39 -18 -84 -18t-84 18t-68 47t-47 70t-18 83zM1227 195q0 47 17 85q18 40 47 69q28 28 69 47q39 18 84 18t84 -18t68 -47q31 -31 48 -69t17 -85q0 -45 -17 -83q-18 -40 -48 -70q-29 -29 -68 -47t-84 -18 t-84 18q-41 19 -69 47q-29 29 -47 70q-17 38 -17 83z" />
<glyph unicode="&#x202f;" horiz-adv-x="375" />
<glyph unicode="&#x2039;" horiz-adv-x="778" d="M61 498l328 362h328l-328 -362l328 -369h-328z" />
<glyph unicode="&#x203a;" horiz-adv-x="778" d="M61 129l328 369l-328 362h328l328 -362l-328 -369h-328z" />
<glyph unicode="&#x205f;" horiz-adv-x="469" />
<glyph unicode="&#x2122;" horiz-adv-x="929" d="M35 1313v53h311v-53h-127v-398h-57v398h-127zM420 915v451h88l131 -328l131 328h88v-451h-57v373l-154 -373h-16l-154 373v-373h-57z" />
<glyph unicode="&#xe000;" horiz-adv-x="993" d="M0 0v993h993v-993h-993z" />
</font>
</defs>
</svg>
